<svg width="220" height="55" viewBox="0 0 220 55" fill="none" xmlns="http://www.w3.org/2000/svg">
<g clip-path="url(#clip0_48_888)">
<path fill-rule="evenodd" clip-rule="evenodd" d="M35.7328 9.01426L17.8754 3.05176e-05V18.1996L35.7328 9.01426Z" fill="#319F01"/>
<path fill-rule="evenodd" clip-rule="evenodd" d="M0.0180664 9.01426L17.8754 3.05176e-05V18.1996L0.0180664 9.01426Z" fill="#206C00"/>
<path fill-rule="evenodd" clip-rule="evenodd" d="M35.7169 45.4053L17.8596 36.3914V54.591L35.7169 45.4053Z" fill="#206C00"/>
<path fill-rule="evenodd" clip-rule="evenodd" d="M0.00219727 45.4053L17.8595 36.3914V54.591L0.00219727 45.4053Z" fill="#319F01"/>
<path fill-rule="evenodd" clip-rule="evenodd" d="M17.8234 36.3726L35.7169 27.2057V45.4053L17.8234 36.3726Z" fill="#E1322D"/>
<path fill-rule="evenodd" clip-rule="evenodd" d="M35.7169 27.2057L17.8596 18.1919V36.3914L35.7169 27.2057Z" fill="#900838"/>
<path fill-rule="evenodd" clip-rule="evenodd" d="M0.0180664 27.2138L17.8754 18.1996V36.3991L0.0180664 27.2138Z" fill="#BE004A"/>
<path fill-rule="evenodd" clip-rule="evenodd" d="M17.8754 18.1996L0.0180664 9.01425V27.3849L17.8754 18.1996Z" fill="#E1322D"/>
<path d="M53.1877 24.0177C53.1877 25.4393 53.6929 26.6673 54.7034 27.6954C55.7138 28.7236 56.9477 29.2347 58.4047 29.2347C59.9089 29.2347 61.1838 28.7472 62.2292 27.7718C63.2751 26.8023 63.798 25.5746 63.798 24.094C63.798 23.4125 63.6335 22.7428 63.3046 22.0731C62.9756 21.4035 62.5409 20.8451 62.0002 20.3989C61.4596 19.9523 60.8253 19.5884 60.097 19.3063C59.674 19.1418 58.9221 18.9242 57.8409 18.6425C56.76 18.3604 56.0077 18.1373 55.5847 17.9728C54.7152 17.6438 53.9869 17.2209 53.3994 16.7038C51.9424 15.4585 51.2141 13.8426 51.2141 11.8453C51.2141 9.78313 51.9251 8.09711 53.3467 6.79867C54.7683 5.49433 56.5251 4.84235 58.6164 4.84235C60.5904 4.84235 62.2764 5.51793 63.6748 6.86948C65.0732 8.22065 65.772 9.89487 65.772 11.8925H63.0579C63.0579 10.5764 62.6054 9.48959 61.7008 8.63183C60.7962 7.77407 59.6622 7.34519 58.2993 7.34519C57.0539 7.34519 55.9963 7.79177 55.1267 8.68457C54.2572 9.57183 53.8224 10.6409 53.8224 11.8866C53.8224 13.2732 54.363 14.3363 55.4439 15.0883C56.1017 15.5348 57.2475 15.9873 58.8808 16.4453C60.5141 16.9037 61.4246 17.1678 61.6127 17.2386C62.5054 17.5616 63.2928 18.0436 63.9743 18.6779C65.5957 20.0877 66.4067 21.9031 66.4067 24.1357C66.4067 26.2683 65.6252 28.0719 64.0624 29.5407C62.4995 31.0037 60.6373 31.7379 58.4752 31.7379C56.1958 31.7379 54.2804 31.0155 52.7293 29.564C51.1783 28.1129 50.4028 26.2624 50.4028 24.018H53.1874L53.1877 24.0177Z" fill="black"/>
<path d="M54.8616 27.5402L54.5456 27.8507L54.4489 27.75L54.3553 27.6483L54.2646 27.545L54.1768 27.4406L54.092 27.3348L54.0105 27.2279L53.9319 27.1198L53.8563 27.0103L53.7837 26.8997L53.714 26.7876L53.6476 26.674L53.5842 26.5593L53.5241 26.4435L53.4669 26.3266L53.4127 26.2082L53.3614 26.0884L53.3135 25.9678L53.2685 25.8457L53.2268 25.7225L53.1881 25.5983L53.1523 25.4729L53.1199 25.346L53.0908 25.2181L53.0646 25.0894L53.0413 24.9592L53.0214 24.8279L53.0045 24.6959L52.9908 24.5624L52.9801 24.4282L52.9724 24.2924L52.968 24.156L52.9665 24.0185H53.4094L53.4108 24.146L53.4153 24.2725L53.4223 24.3979L53.4322 24.5222L53.4451 24.645L53.4606 24.7667L53.4791 24.8873L53.5005 25.0064L53.5244 25.1248L53.5514 25.2417L53.5812 25.3575L53.6137 25.4721L53.6491 25.5857L53.6871 25.6982L53.728 25.8096L53.7719 25.9198L53.8183 26.029L53.8678 26.137L53.9201 26.2444L53.9754 26.3502L54.0333 26.4553L54.0942 26.5589L54.158 26.6618L54.2247 26.7636L54.2941 26.8643L54.3663 26.9638L54.4416 27.0627L54.5197 27.1604L54.6009 27.257L54.685 27.3525L54.772 27.4473L54.862 27.5406L54.8616 27.5402ZM58.4047 29.0131V29.4563L58.2639 29.4549L58.1245 29.4501L57.9862 29.4423L57.849 29.4313L57.7133 29.4173L57.5787 29.3999L57.4452 29.3796L57.3128 29.356L57.1819 29.3295L57.0521 29.2996L56.9241 29.2668L56.7969 29.2307L56.6711 29.1916L56.5469 29.1492L56.4237 29.1038L56.302 29.0551L56.1814 29.0035L56.0627 28.9482L55.945 28.8899L55.8289 28.8287L55.7142 28.7642L55.6006 28.6967L55.4885 28.6259L55.3779 28.5521L55.2687 28.475L55.161 28.395L55.0548 28.3117L54.9501 28.2254L54.8468 28.1361L54.7451 28.044L54.6448 27.9488L54.5456 27.8503L54.8616 27.5398L54.9534 27.6309L55.0463 27.7191L55.1404 27.8043L55.2355 27.8865L55.3321 27.9658L55.4295 28.0421L55.5283 28.1155L55.6283 28.1863L55.7293 28.2538L55.8315 28.3183L55.9351 28.3803L56.0398 28.4389L56.1457 28.495L56.253 28.5481L56.3614 28.5982L56.4709 28.6454L56.5819 28.6897L56.694 28.7313L56.8076 28.7701L56.9223 28.8058L57.0384 28.8387L57.1561 28.8689L57.2748 28.8962L57.395 28.9205L57.5164 28.9423L57.6392 28.9611L57.7634 28.9769L57.8888 28.9898L58.0157 28.9998L58.144 29.0068L58.2735 29.0112L58.4044 29.0127L58.4047 29.0131ZM62.0788 27.6095L62.3801 27.9344L62.3804 27.9341L62.2783 28.0274L62.1743 28.1177L62.0688 28.2055L61.9619 28.2899L61.8538 28.3718L61.744 28.4507L61.6326 28.5267L61.5201 28.5997L61.4062 28.6694L61.2907 28.7365L61.1738 28.8007L61.0555 28.8619L60.9356 28.9198L60.8147 28.9751L60.6922 29.0271L60.5683 29.0761L60.4429 29.1222L60.3164 29.1654L60.1885 29.2056L60.059 29.2428L59.9285 29.2771L59.7965 29.3081L59.6634 29.3365L59.5287 29.3619L59.3927 29.3841L59.2555 29.4036L59.1172 29.4198L58.9771 29.4331L58.8362 29.4434L58.6939 29.4508L58.5504 29.4552L58.4055 29.4567V29.0135L58.5412 29.012L58.6754 29.0079L58.8085 29.0009L58.9402 28.9913L59.0704 28.9788L59.1991 28.9637L59.3263 28.946L59.452 28.9253L59.5767 28.9017L59.6999 28.8759L59.8216 28.8471L59.9421 28.8154L60.0613 28.7811L60.1789 28.7442L60.2954 28.7044L60.4105 28.662L60.5244 28.6167L60.6369 28.5691L60.7483 28.5182L60.8582 28.4647L60.9666 28.4087L61.0739 28.35L61.1797 28.2884L61.2848 28.2239L61.3885 28.1568L61.4906 28.0871L61.5916 28.0145L61.6916 27.9389L61.7904 27.8607L61.8878 27.7795L61.984 27.6955L62.0792 27.6088L62.0795 27.6084L62.0788 27.6095ZM63.5764 24.0944H64.0193L64.0178 24.2375L64.013 24.3791L64.0049 24.5192L63.9938 24.6579L63.9794 24.7955L63.9621 24.9315L63.9411 25.0661L63.9171 25.1993L63.8898 25.3309L63.8596 25.4611L63.826 25.5898L63.7892 25.717L63.749 25.8428L63.7058 25.967L63.6593 26.0898L63.6096 26.2108L63.5565 26.3306L63.5004 26.4487L63.441 26.5652L63.3783 26.6802L63.3123 26.7938L63.2434 26.9056L63.1711 27.0158L63.0955 27.1242L63.0169 27.2312L62.9351 27.3363L62.8503 27.4399L62.7621 27.5421L62.671 27.642L62.577 27.7408L62.4797 27.8378L62.3793 27.933L62.0781 27.6081L62.1706 27.5199L62.2602 27.4307L62.3469 27.34L62.4306 27.2478L62.511 27.1545L62.5884 27.0597L62.6633 26.9635L62.7348 26.8661L62.8034 26.7669L62.8691 26.667L62.9318 26.5652L62.9915 26.4623L63.0483 26.3579L63.1021 26.2521L63.153 26.1448L63.2013 26.036L63.2463 25.9257L63.2887 25.814L63.3282 25.7012L63.3647 25.5868L63.3983 25.4707L63.4289 25.353L63.4565 25.2339L63.4816 25.1133L63.5037 24.9909L63.5229 24.8674L63.5391 24.742L63.5524 24.6151L63.5627 24.4868L63.5701 24.357L63.5745 24.2253L63.576 24.0922L63.5764 24.0944ZM63.1055 22.1709L63.503 21.9755L63.5347 22.0407L63.5649 22.1056L63.5948 22.1713L63.6232 22.2366L63.6509 22.3018L63.6774 22.3675L63.7029 22.4331L63.7276 22.4988L63.7512 22.5644L63.774 22.6304L63.7958 22.6964L63.8164 22.7624L63.836 22.8281L63.8548 22.8941L63.8725 22.9601L63.8895 23.0265L63.9049 23.0928L63.9197 23.1588L63.9333 23.2252L63.9463 23.2916L63.9577 23.3584L63.9684 23.4247L63.9783 23.4915L63.9868 23.5582L63.9946 23.625L64.0012 23.6917L64.0071 23.7585L64.0115 23.8256L64.0152 23.8927L64.0178 23.9598L64.0193 24.0266L64.0196 24.0937H63.5767L63.5764 24.0332L63.5749 23.9727L63.5727 23.9122L63.5697 23.8521L63.5657 23.792L63.5609 23.7319L63.555 23.6718L63.548 23.6117L63.5402 23.5516L63.5314 23.4915L63.5218 23.4314L63.5111 23.3716L63.4997 23.3119L63.4871 23.2518L63.4739 23.1917L63.4598 23.1319L63.4447 23.0722L63.4289 23.0121L63.4119 22.9523L63.3942 22.8922L63.3754 22.8325L63.3559 22.7727L63.3352 22.7126L63.3134 22.6525L63.2909 22.5924L63.2673 22.5323L63.243 22.4722L63.2176 22.4121L63.1914 22.352L63.1641 22.2919L63.1357 22.2314L63.1066 22.1709H63.1055ZM61.859 20.5697L62.1411 20.2282L62.1939 20.2721L62.2459 20.3167L62.2975 20.3625L62.3484 20.4086L62.3982 20.4554L62.4476 20.503L62.4966 20.5513L62.5446 20.6003L62.5921 20.6501L62.639 20.7003L62.6851 20.7511L62.7304 20.8028L62.7754 20.8548L62.82 20.9079L62.8635 20.9617L62.9063 21.0159L62.9487 21.0712L62.9904 21.1269L63.0313 21.1833L63.0719 21.2405L63.1114 21.298L63.1504 21.3563L63.1888 21.4153L63.2264 21.475L63.2633 21.5355L63.2994 21.5964L63.3352 21.658L63.3702 21.7203L63.4045 21.7833L63.4381 21.8468L63.4709 21.9109L63.5034 21.9758L63.1058 22.1713L63.0759 22.1112L63.0453 22.0518L63.0144 21.9932L62.9827 21.9353L62.9506 21.8777L62.9178 21.8209L62.8846 21.7649L62.8506 21.7096L62.816 21.655L62.7809 21.6008L62.7452 21.5473L62.7087 21.4942L62.6718 21.4422L62.6342 21.3906L62.5962 21.3393L62.5578 21.2892L62.5184 21.2394L62.4785 21.1904L62.4383 21.142L62.3974 21.0945L62.3557 21.0473L62.3137 21.0008L62.2709 20.9551L62.2278 20.9097L62.1839 20.8651L62.1393 20.8212L62.0943 20.7777L62.0486 20.7349L62.0025 20.6925L61.9556 20.6512L61.9081 20.6103L61.8601 20.5697H61.859ZM60.0163 19.5128L60.177 19.0998H60.1767L60.2467 19.1275L60.3157 19.1551L60.3847 19.1835L60.4529 19.2123L60.5204 19.2418L60.5875 19.2716L60.6542 19.3022L60.7202 19.3332L60.7855 19.3646L60.8504 19.3967L60.915 19.4291L60.9788 19.4623L61.0418 19.4955L61.1045 19.5294L61.1668 19.5641L61.2284 19.5991L61.2893 19.6349L61.3497 19.6706L61.4098 19.7072L61.4696 19.7444L61.5286 19.782L61.5869 19.82L61.6448 19.8587L61.7019 19.8978L61.7587 19.9373L61.8151 19.9775L61.8708 20.018L61.9258 20.059L61.9803 20.1006L62.0342 20.143L62.0876 20.1858L62.1404 20.229L61.8583 20.5704L61.8092 20.5303L61.7594 20.4904L61.7093 20.4513L61.6584 20.4126L61.6071 20.3743L61.5555 20.3363L61.5035 20.299L61.4504 20.2622L61.3969 20.2257L61.3431 20.1899L61.2885 20.1541L61.2336 20.1191L61.1779 20.0844L61.1218 20.0501L61.065 20.0162L61.0075 19.983L60.9496 19.9502L60.8914 19.9177L60.8324 19.886L60.7726 19.8543L60.7125 19.8233L60.652 19.7931L60.5908 19.7628L60.5289 19.733L60.4665 19.7038L60.4038 19.6751L60.3408 19.647L60.2766 19.6194L60.2121 19.5921L60.1472 19.5652L60.0815 19.5386L60.0155 19.5128H60.0152H60.0163ZM57.7845 18.8568L57.8962 18.4283L57.9969 18.4544L58.0957 18.4806L58.1927 18.5061L58.2875 18.5315L58.3804 18.5562L58.4715 18.5806L58.5607 18.6045L58.6481 18.6285L58.7333 18.6521L58.8167 18.675L58.8982 18.6978L58.9778 18.72L59.0556 18.7421L59.1316 18.7638L59.2053 18.7852L59.2776 18.8063L59.3477 18.8273L59.4159 18.8476L59.4823 18.8675L59.5468 18.887L59.6095 18.9066L59.6704 18.9257L59.7294 18.9445L59.7865 18.963L59.8418 18.9811L59.8949 18.9988L59.9466 19.0161L59.9964 19.0334L60.0443 19.0504L60.0904 19.0673L60.1346 19.0839L60.1774 19.1005L60.0166 19.5136L59.9779 19.4988L59.937 19.4837L59.8942 19.4678L59.8492 19.452L59.802 19.4354L59.753 19.4188L59.7017 19.4018L59.6486 19.3845L59.5937 19.3668L59.5365 19.3487L59.4775 19.3303L59.4166 19.3115L59.3536 19.2923L59.2887 19.2727L59.2216 19.2528L59.1526 19.2326L59.0818 19.2119L59.0088 19.1909L58.9343 19.1695L58.8576 19.1477L58.779 19.1256L58.6983 19.1031L58.6157 19.0802L58.5309 19.057L58.4446 19.0334L58.3561 19.0094L58.2657 18.9851L58.1731 18.9604L58.0791 18.9353L57.9829 18.9099L57.8848 18.8841L57.7848 18.8579L57.7845 18.8568ZM55.5062 18.1801L55.6629 17.7656L55.6648 17.7663L55.7039 17.7814L55.7448 17.7966L55.7876 17.8124L55.8326 17.8283L55.8798 17.8449L55.9288 17.8615L55.9801 17.8788L56.0332 17.8965L56.0881 17.9146L56.1453 17.9326L56.2043 17.9514L56.2651 17.9706L56.3282 17.9902L56.3931 18.0101L56.4602 18.0304L56.5288 18.051L56.6 18.072L56.673 18.0934L56.7475 18.1152L56.8242 18.1373L56.9027 18.1594L56.9835 18.1823L57.0661 18.2052L57.1505 18.2284L57.2372 18.2524L57.3253 18.2763L57.4157 18.3007L57.5083 18.3254L57.6023 18.3508L57.6985 18.3763L57.7966 18.4021L57.8966 18.4283L57.7848 18.8568L57.6842 18.8306L57.5853 18.8044L57.4883 18.7786L57.3936 18.7531L57.3006 18.7281L57.2096 18.7034L57.1203 18.679L57.0333 18.6551L56.9477 18.6315L56.864 18.6079L56.7825 18.585L56.7029 18.5621L56.6251 18.54L56.5491 18.5182L56.4753 18.4965L56.4034 18.4751L56.333 18.4541L56.2648 18.4334L56.1984 18.4131L56.1338 18.3932L56.0712 18.3733L56.0107 18.3541L55.9517 18.335L55.8945 18.3162L55.8392 18.2977L55.7861 18.2796L55.7345 18.2619L55.6847 18.2446L55.6371 18.2277L55.591 18.2107L55.5468 18.1941L55.5044 18.1779L55.5062 18.1786V18.1801ZM53.2552 16.8724L53.5432 16.5357L53.5458 16.5379L53.5993 16.584L53.6535 16.6298L53.7084 16.6751L53.7641 16.7201L53.8209 16.7644L53.8785 16.8083L53.9367 16.8514L53.9957 16.8942L54.0555 16.9366L54.1163 16.9783L54.1779 17.0196L54.2402 17.0605L54.3033 17.1007L54.3674 17.1401L54.4323 17.1792L54.498 17.218L54.5647 17.2563L54.6322 17.2939L54.7004 17.3312L54.7694 17.3677L54.8391 17.4038L54.9099 17.4396L54.9814 17.4746L55.0541 17.5089L55.1275 17.5432L55.2012 17.5764L55.2765 17.6092L55.3521 17.6417L55.4288 17.6738L55.5062 17.7051L55.5848 17.7361L55.6637 17.7663L55.5069 18.1808L55.4236 18.1487L55.3414 18.1163L55.2602 18.0835L55.1795 18.0499L55.0998 18.0156L55.0209 17.9809L54.9424 17.9455L54.8649 17.9094L54.7886 17.8729L54.7126 17.8356L54.6377 17.798L54.5636 17.7597L54.4902 17.721L54.4176 17.6815L54.3457 17.6413L54.2749 17.6007L54.2048 17.5594L54.1355 17.5178L54.0669 17.4754L53.999 17.4322L53.9323 17.3887L53.8663 17.3448L53.801 17.2998L53.7368 17.2545L53.6734 17.2087L53.6107 17.1623L53.5488 17.1151L53.4879 17.0675L53.4278 17.0192L53.3684 16.9701L53.3098 16.9207L53.2519 16.8706L53.2545 16.8728L53.2552 16.8724ZM50.9921 11.8453H51.435L51.4372 12.0264L51.4435 12.2053L51.4538 12.3815L51.4685 12.5556L51.487 12.7274L51.5098 12.8967L51.5368 13.0638L51.5677 13.2286L51.6028 13.3912L51.6419 13.5513L51.685 13.7091L51.7322 13.8647L51.7838 14.0181L51.8391 14.1693L51.8989 14.3187L51.9627 14.4658L52.0302 14.6104L52.1021 14.7531L52.1781 14.8936L52.2581 15.0319L52.3422 15.1683L52.4307 15.3026L52.5232 15.435L52.6198 15.5651L52.7205 15.6935L52.8252 15.8196L52.9344 15.9439L53.048 16.0663L53.1656 16.1865L53.2877 16.3045L53.4138 16.4207L53.544 16.535L53.256 16.8717L53.1173 16.7504L52.9831 16.6264L52.8533 16.5003L52.7275 16.3716L52.6062 16.2407L52.4893 16.1076L52.3764 15.9719L52.268 15.834L52.164 15.6938L52.0645 15.5511L51.9693 15.4062L51.8786 15.259L51.7923 15.1093L51.7101 14.9574L51.6326 14.8032L51.5596 14.6469L51.491 14.488L51.4269 14.3272L51.3671 14.1638L51.3118 13.9982L51.2609 13.8308L51.2145 13.6612L51.1724 13.4889L51.1348 13.3149L51.1016 13.1386L51.0728 12.9601L51.0485 12.7794L51.0286 12.5969L51.0131 12.4121L51.002 12.2252L50.9954 12.036L50.9932 11.8446L50.9921 11.8453ZM53.1966 6.63572L53.496 6.96208L53.4957 6.96245L53.3684 7.08156L53.2456 7.20252L53.1269 7.32606L53.0122 7.45144L52.9016 7.57903L52.795 7.70884L52.6925 7.84049L52.594 7.97436L52.4996 8.11006L52.4093 8.24798L52.323 8.38849L52.2407 8.53083L52.1626 8.67502L52.0884 8.82179L52.018 8.97041L51.9516 9.1216L51.8893 9.27501L51.831 9.43063L51.7768 9.58847L51.7267 9.74851L51.6802 9.91077L51.6378 10.0752L51.5994 10.2419L51.5652 10.4108L51.5349 10.5819L51.5087 10.7556L51.4866 10.9315L51.4685 11.1096L51.4542 11.29L51.4438 11.4729L51.4376 11.658L51.4353 11.8453H50.9925L50.9947 11.6484L51.0009 11.4533L51.0116 11.2605L51.0267 11.0698L51.0459 10.881L51.0695 10.6944L51.0976 10.51L51.1296 10.3278L51.1661 10.1475L51.2071 9.96977L51.2521 9.79424L51.3015 9.62055L51.3553 9.44944L51.4136 9.28017L51.4763 9.11349L51.543 8.94902L51.6142 8.78676L51.6898 8.62671L51.7695 8.46925L51.8535 8.31363L51.942 8.16059L52.0346 8.01013L52.1316 7.86151L52.233 7.71548L52.3385 7.57203L52.4484 7.43116L52.5627 7.2925L52.6811 7.15605L52.8035 7.02219L52.9303 6.89054L53.0613 6.76147L53.1966 6.63498L53.1962 6.63535L53.1966 6.63572ZM58.616 4.62076V5.06402L58.4254 5.06586L58.2366 5.0714L58.05 5.08061L57.8652 5.09389L57.6827 5.11049L57.502 5.13077L57.3235 5.15511L57.1472 5.18313L56.9728 5.21485L56.8002 5.25025L56.6298 5.28897L56.4613 5.33175L56.2946 5.37821L56.1302 5.42837L55.9679 5.48221L55.8071 5.53973L55.6485 5.60095L55.4918 5.66585L55.3373 5.73444L55.1843 5.80672L55.0334 5.88269L54.8841 5.96234L54.7369 6.04569L54.5917 6.13272L54.4482 6.22343L54.3066 6.31784L54.1668 6.4163L54.0289 6.51808L53.8928 6.62392L53.7586 6.73344L53.6262 6.84666L53.4957 6.96356L53.1962 6.63719L53.3341 6.51329L53.4743 6.39344L53.6166 6.27727L53.7608 6.16517L53.9072 6.05675L54.0558 5.95239L54.2063 5.85171L54.359 5.7551L54.5138 5.66253L54.6706 5.57403L54.8291 5.48921L54.9899 5.40845L55.1529 5.33138L55.3178 5.25836L55.4844 5.1894L55.6533 5.1245L55.8241 5.06365L55.9967 5.00649L56.1715 4.95339L56.3481 4.90434L56.5266 4.85898L56.7073 4.81768L56.8898 4.78044L57.0742 4.74725L57.2604 4.71774L57.4485 4.6923L57.6388 4.67054L57.8306 4.65321L58.0242 4.63957L58.22 4.62961L58.4173 4.62371L58.6168 4.6215L58.616 4.62076ZM63.8282 6.71021L63.5203 7.02883L63.392 6.9075L63.2622 6.79023L63.1309 6.67665L62.9978 6.56713L62.8632 6.46129L62.7271 6.35951L62.5895 6.26179L62.4501 6.16775L62.3093 6.07777L62.1669 5.99148L62.0231 5.90924L61.8774 5.83069L61.7303 5.75583L61.5813 5.68503L61.4309 5.61791L61.2789 5.55485L61.1252 5.49548L60.9699 5.4398L60.8128 5.38817L60.6542 5.34023L60.4938 5.29598L60.3319 5.25578L60.1682 5.21927L60.0026 5.18682L59.8356 5.15806L59.6667 5.13298L59.4959 5.11196L59.3237 5.09463L59.1493 5.08135L58.9734 5.07176L58.7956 5.06586L58.6164 5.06402V4.62076L58.8056 4.62297L58.9929 4.62924L59.1788 4.63957L59.3628 4.65395L59.5453 4.67239L59.7264 4.69488L59.9056 4.72143L60.0834 4.75204L60.2593 4.7867L60.4337 4.82543L60.6063 4.8682L60.7774 4.91541L60.9463 4.9663L61.1141 5.02161L61.28 5.08098L61.4441 5.14404L61.6064 5.21153L61.7672 5.28307L61.9261 5.35867L62.0832 5.43832L62.2388 5.52203L62.3923 5.61017L62.5442 5.70199L62.6943 5.79787L62.8425 5.89781L62.9889 6.0018L63.1335 6.10985L63.2762 6.22196L63.4171 6.33812L63.5565 6.45834L63.694 6.58262L63.8293 6.71058L63.8282 6.71021ZM65.7717 12.1142V11.6709L65.55 11.8925L65.5478 11.7111L65.5419 11.5315L65.532 11.3541L65.5183 11.179L65.5003 11.0053L65.4785 10.8334L65.4527 10.6638L65.4228 10.4964L65.3889 10.3304L65.3513 10.1667L65.3096 10.0048L65.2639 9.84476L65.2145 9.68693L65.161 9.53094L65.1038 9.37642L65.0426 9.22412L64.9773 9.07366L64.908 8.92468L64.835 8.77754L64.7579 8.63224L64.6768 8.48916L64.5916 8.34755L64.5027 8.20779L64.4098 8.06987L64.3128 7.93379L64.2118 7.79919L64.1067 7.66643L63.9975 7.53552L63.8843 7.40645L63.767 7.27886L63.6457 7.1531L63.5203 7.0292L63.8282 6.71058L63.961 6.84186L64.0897 6.97499L64.2143 7.11033L64.3346 7.24751L64.4507 7.38691L64.5628 7.52851L64.6705 7.67196L64.7741 7.81763L64.8733 7.96514L64.9685 8.11449L65.0596 8.26605L65.1462 8.41946L65.2288 8.57508L65.307 8.73255L65.3811 8.89186L65.4512 9.05338L65.5168 9.21674L65.5781 9.38195L65.6352 9.54901L65.688 9.71827L65.7366 9.88938L65.7813 10.0623L65.8214 10.2371L65.8572 10.4138L65.8889 10.5923L65.9162 10.7726L65.9395 10.9548L65.9586 11.1388L65.9734 11.3246L65.9837 11.5123L65.99 11.7015L65.9922 11.8929L65.7706 12.1145L65.7717 12.1142ZM65.9933 11.8925V12.1142H65.7717L65.9933 11.8925ZM63.0575 11.6709H65.7717V12.1142H63.0575L62.8359 11.8925L63.0575 11.6709ZM63.0575 12.1142H62.8359V11.8925L63.0575 12.1142ZM61.5478 8.79266L61.8524 8.47109L61.9394 8.55591L62.0242 8.6422L62.1061 8.72997L62.1854 8.81921L62.2621 8.90993L62.3358 9.00212L62.4066 9.09579L62.4752 9.19093L62.5409 9.28755L62.6036 9.38564L62.6637 9.48521L62.7212 9.58625L62.7754 9.68877L62.8274 9.79276L62.8761 9.89823L62.9222 10.0048L62.9653 10.1129L63.0059 10.2224L63.0435 10.3334L63.0782 10.4455L63.1102 10.5591L63.1394 10.6738L63.1659 10.7899L63.1895 10.9072L63.2106 11.0259L63.2286 11.1462L63.2437 11.2675L63.2563 11.3899L63.2659 11.5134L63.2729 11.6385L63.2769 11.7649L63.2784 11.8925H62.8355L62.834 11.7745L62.83 11.658L62.8237 11.5429L62.8149 11.4294L62.8034 11.3173L62.7894 11.2066L62.7732 11.0971L62.754 10.9894L62.7326 10.8828L62.7087 10.7778L62.6821 10.6738L62.6533 10.5716L62.622 10.4706L62.5881 10.371L62.5516 10.2725L62.5128 10.1755L62.4715 10.08L62.4277 9.98563L62.3812 9.89233L62.3321 9.80014L62.2809 9.70942L62.227 9.61981L62.1706 9.53167L62.112 9.44501L62.0504 9.35909L61.9862 9.27464L61.9195 9.1913L61.8502 9.10906L61.7782 9.02793L61.7041 8.94828L61.6271 8.86973L61.5474 8.79229L61.5478 8.79266ZM58.2985 7.56687V7.1236L58.4302 7.12508L58.5604 7.12913L58.6894 7.13577L58.8174 7.14462L58.9439 7.15642L59.0689 7.17081L59.1928 7.18777L59.3156 7.20731L59.4369 7.22944L59.5568 7.25452L59.6759 7.28217L59.7932 7.31241L59.9093 7.34523L60.024 7.381L60.1376 7.41936L60.2497 7.45992L60.3603 7.50344L60.4699 7.54953L60.5779 7.59821L60.6845 7.64947L60.7899 7.70368L60.8936 7.76047L60.9961 7.81984L61.0971 7.8818L61.1967 7.94633L61.2948 8.01345L61.3914 8.08314L61.4866 8.15542L61.5806 8.23028L61.6728 8.30809L61.7635 8.38812L61.8527 8.47072L61.5481 8.79229L61.4663 8.71669L61.3833 8.64331L61.2992 8.5725L61.214 8.50428L61.1274 8.43827L61.0396 8.37484L60.9507 8.31399L60.8604 8.25536L60.7689 8.19931L60.6764 8.14547L60.5823 8.09421L60.4872 8.04516L60.3906 7.9987L60.2928 7.95444L60.1936 7.91277L60.0933 7.87331L59.9916 7.83644L59.8883 7.80177L59.7839 7.76969L59.6781 7.73982L59.5708 7.71216L59.4624 7.68708L59.3525 7.66422L59.2411 7.64394L59.1283 7.62587L59.0143 7.61038L58.8985 7.5971L58.7816 7.58641L58.6632 7.57793L58.5434 7.57203L58.4221 7.56834L58.2993 7.56723L58.2985 7.56687ZM55.2842 8.83986L54.9678 8.52973L54.9674 8.53009L55.0534 8.44417L55.14 8.36083L55.2281 8.28007L55.3174 8.20226L55.4081 8.12703L55.4999 8.05438L55.5932 7.98431L55.6876 7.9172L55.7832 7.85266L55.8801 7.79071L55.9779 7.73134L56.0771 7.67491L56.1774 7.62107L56.2791 7.56982L56.382 7.52151L56.486 7.47615L56.5911 7.43337L56.6973 7.39317L56.8046 7.35593L56.9131 7.32163L57.0226 7.28992L57.1332 7.26115L57.245 7.23497L57.3578 7.21174L57.4717 7.19109L57.5868 7.17339L57.703 7.15827L57.8199 7.1461L57.9379 7.13651L58.0574 7.1295L58.1776 7.12545L58.2985 7.12397V7.56723L58.1872 7.56834L58.0773 7.57203L57.9685 7.5783L57.8608 7.58715L57.7542 7.59821L57.6491 7.61186L57.5451 7.62808L57.4419 7.64652L57.3401 7.66791L57.2394 7.69151L57.1399 7.71769L57.041 7.74609L56.9437 7.77706L56.8471 7.81025L56.7519 7.84602L56.6575 7.88438L56.5642 7.92531L56.472 7.96846L56.3809 8.01418L56.2906 8.06249L56.2013 8.11338L56.1132 8.16686L56.0262 8.22254L55.9399 8.28081L55.8543 8.34165L55.7702 8.40508L55.6869 8.47109L55.6047 8.53968L55.5232 8.61085L55.4428 8.68461L55.3631 8.76094L55.2846 8.83986L55.2842 8.84023V8.83986ZM54.0433 11.8866H53.6004L53.6019 11.7657L53.6059 11.6455L53.6126 11.5264L53.6218 11.408L53.634 11.2907L53.6487 11.1745L53.666 11.0595L53.686 10.9452L53.7088 10.8316L53.7343 10.7195L53.7623 10.6081L53.7929 10.4979L53.8265 10.3887L53.8626 10.2806L53.9013 10.1737L53.943 10.0679L53.9872 9.96314L54.0341 9.85951L54.0835 9.75699L54.1359 9.65558L54.1908 9.55527L54.2483 9.45608L54.3084 9.35798L54.3711 9.26137L54.4368 9.16585L54.505 9.07145L54.5758 8.97815L54.6492 8.88596L54.7251 8.79524L54.8037 8.70526L54.8848 8.61676L54.9685 8.52973L55.2849 8.83986L55.2079 8.91988L55.1337 9.00101L55.0622 9.08288L54.9929 9.16585L54.9261 9.24993L54.8616 9.33475L54.7996 9.42067L54.7403 9.50734L54.6835 9.5951L54.6289 9.68361L54.5769 9.77322L54.5275 9.86357L54.4803 9.95502L54.4357 10.0472L54.3933 10.1405L54.3534 10.2349L54.3162 10.3301L54.2811 10.4267L54.2483 10.524L54.2181 10.6225L54.1901 10.7221L54.1646 10.8227L54.1414 10.9242L54.1207 11.0267L54.1027 11.1303L54.0868 11.235L54.0735 11.3409L54.0628 11.4478L54.0544 11.5559L54.0481 11.665L54.0444 11.7753L54.0429 11.8866H54.0433ZM55.5674 14.905L55.3189 15.2716L55.3167 15.2701L55.2119 15.1953L55.1105 15.1182L55.0121 15.0393L54.9169 14.9581L54.8251 14.8752L54.7362 14.79L54.6507 14.7029L54.5684 14.6137L54.4895 14.5222L54.4139 14.4289L54.3416 14.3334L54.2727 14.2361L54.2067 14.1365L54.1443 14.0351L54.0853 13.9315L54.0296 13.826L53.9773 13.7187L53.9282 13.6092L53.8829 13.4978L53.8408 13.3846L53.8021 13.2695L53.7671 13.153L53.735 13.0343L53.7066 12.9137L53.6815 12.7912L53.6598 12.667L53.6417 12.5412L53.6266 12.414L53.6148 12.2845L53.6067 12.1536L53.6015 12.0209L53.6 11.8863H54.0429L54.0444 12.0098L54.0488 12.1311L54.0566 12.2506L54.0669 12.3679L54.0805 12.4837L54.0971 12.5973L54.1167 12.7086L54.1392 12.8182L54.1646 12.9255L54.193 13.0309L54.2244 13.1346L54.2587 13.2363L54.2959 13.3363L54.3361 13.4344L54.3789 13.5306L54.425 13.625L54.4736 13.7176L54.5253 13.8083L54.5802 13.8975L54.6381 13.9849L54.699 14.0709L54.7628 14.1549L54.8295 14.2372L54.8992 14.3179L54.9722 14.3972L55.0482 14.4747L55.1275 14.5506L55.2097 14.6251L55.2949 14.6978L55.3834 14.769L55.4752 14.8387L55.57 14.9065L55.5678 14.905H55.5674ZM58.9398 16.2322L58.82 16.6589L58.6673 16.6158L58.5176 16.5726L58.3704 16.5295L58.2263 16.4863L58.085 16.4432L57.9464 16.4L57.8106 16.3569L57.6779 16.3137L57.5477 16.2706L57.4201 16.2274L57.2958 16.1843L57.1738 16.1411L57.0547 16.098L56.9389 16.0549L56.8253 16.0117L56.7147 15.9686L56.607 15.9254L56.5019 15.8823L56.3997 15.8391L56.3002 15.796L56.2035 15.7528L56.1095 15.7093L56.0184 15.6662L55.9299 15.6227L55.844 15.5791L55.761 15.5356L55.6806 15.4921L55.6032 15.4486L55.528 15.4047L55.4557 15.3608L55.386 15.3166L55.3192 15.2723L55.5678 14.9058L55.6272 14.9452L55.6895 14.9847L55.7548 15.0245L55.823 15.0647L55.8945 15.1049L55.969 15.1455L56.0464 15.186L56.1268 15.227L56.2106 15.2679L56.2968 15.3092L56.3865 15.3501L56.4787 15.3914L56.5738 15.4327L56.6723 15.474L56.7733 15.5157L56.8773 15.5574L56.9842 15.5991L57.0941 15.6407L57.207 15.6828L57.3228 15.7248L57.4415 15.7668L57.5632 15.8089L57.6875 15.8509L57.8151 15.8933L57.9456 15.9357L58.0787 15.9782L58.2148 16.0206L58.3542 16.063L58.4962 16.1054L58.6411 16.1478L58.789 16.1906L58.9398 16.2333V16.2322ZM61.6872 17.0303L61.5363 17.447L61.5338 17.4462L61.5179 17.4403L61.4969 17.433L61.4703 17.4241L61.439 17.4138L61.4039 17.4027L61.3641 17.3902L61.3191 17.3765L61.2705 17.3614L61.2174 17.3456L61.1598 17.3282L61.0982 17.3098L61.0322 17.2902L60.9622 17.2692L60.8877 17.2475L60.8088 17.2246L60.7258 17.2003L60.6384 17.1752L60.5469 17.1486L60.451 17.121L60.3511 17.0922L60.2471 17.0623L60.1387 17.0314L60.0259 16.9993L59.909 16.9661L59.788 16.9318L59.6626 16.896L59.5328 16.8595L59.3986 16.8215L59.2607 16.7824L59.1183 16.7422L58.9715 16.7009L58.8207 16.6585L58.9406 16.2319L59.0918 16.2743L59.2385 16.3156L59.3809 16.3558L59.5195 16.3949L59.6538 16.4328L59.7836 16.4694L59.9093 16.5051L60.031 16.5394L60.1483 16.573L60.2611 16.6051L60.3699 16.636L60.4746 16.6659L60.575 16.6947L60.6712 16.7223L60.763 16.7489L60.8508 16.7743L60.9345 16.7987L61.0138 16.8219L61.089 16.844L61.1598 16.865L61.2266 16.885L61.2889 16.9038L61.3472 16.9215L61.4014 16.9377L61.4515 16.9532L61.4969 16.9672L61.5389 16.9801L61.5773 16.9923L61.6108 17.0033L61.6407 17.0133L61.6676 17.0225L61.6909 17.031L61.6883 17.0303H61.6872ZM64.1188 18.5109L63.8282 18.845L63.8227 18.8402L63.7604 18.783L63.6977 18.7266L63.6343 18.6713L63.5701 18.6167L63.5056 18.5629L63.4407 18.5101L63.375 18.4581L63.3086 18.4072L63.2415 18.3571L63.174 18.3077L63.1062 18.2594L63.0376 18.2118L62.9683 18.165L62.8986 18.1192L62.8281 18.0742L62.757 18.0304L62.6851 17.9872L62.6128 17.9448L62.5401 17.9035L62.4664 17.8629L62.3923 17.8235L62.3174 17.7848L62.2422 17.7468L62.1662 17.7099L62.0895 17.6738L62.0124 17.6387L61.9346 17.6044L61.8561 17.5712L61.7768 17.5388L61.6971 17.5071L61.6167 17.4765L61.536 17.4466L61.6868 17.0299L61.7727 17.0616L61.8579 17.0944L61.9427 17.128L62.0268 17.1626L62.1101 17.198L62.1931 17.2346L62.2754 17.2722L62.3568 17.3105L62.4376 17.3496L62.518 17.3902L62.5977 17.4315L62.6766 17.4739L62.7548 17.517L62.8326 17.5613L62.9096 17.6063L62.9863 17.6524L63.0623 17.6996L63.1375 17.7475L63.2124 17.7966L63.2862 17.8463L63.3595 17.8969L63.4326 17.9485L63.5045 18.0012L63.5756 18.0547L63.6464 18.1093L63.7165 18.1646L63.7858 18.221L63.8544 18.2782L63.9226 18.3364L63.9901 18.3954L64.0569 18.4556L64.1233 18.5164L64.1177 18.5116L64.1188 18.5109ZM66.6272 24.1357H66.1843L66.1821 23.9329L66.1751 23.7323L66.1637 23.5346L66.1474 23.3392L66.1268 23.1463L66.1013 22.9564L66.0715 22.7687L66.0372 22.5832L65.9981 22.4003L65.9546 22.22L65.9063 22.0422L65.8535 21.8667L65.796 21.6937L65.734 21.523L65.6673 21.3548L65.5961 21.1889L65.5202 21.0255L65.4401 20.8644L65.3553 20.7054L65.2657 20.5487L65.1717 20.3945L65.0728 20.2426L64.9696 20.0929L64.8615 19.9454L64.7491 19.8001L64.6318 19.6574L64.5097 19.5165L64.3829 19.3778L64.2516 19.2414L64.1155 19.1072L63.975 18.9755L63.8293 18.8457L64.1199 18.5116L64.2737 18.6484L64.4227 18.7882L64.5669 18.9302L64.7063 19.0747L64.8409 19.2219L64.9707 19.3716L65.0957 19.5239L65.2159 19.6788L65.331 19.8362L65.4412 19.9963L65.5467 20.1585L65.6474 20.3237L65.7429 20.4912L65.834 20.6612L65.9199 20.8338L66.001 21.0085L66.077 21.1859L66.1482 21.3659L66.2146 21.5484L66.2758 21.7336L66.3322 21.9205L66.3838 22.1101L66.4303 22.3022L66.472 22.4965L66.5088 22.6935L66.5406 22.8926L66.5675 23.0943L66.5892 23.2982L66.6062 23.5044L66.6184 23.7127L66.6257 23.9237L66.6279 24.1368L66.6272 24.1357ZM64.2129 29.7023L63.9101 29.3789L63.9097 29.3793L64.0502 29.2439L64.1863 29.1067L64.3176 28.9681L64.4445 28.8276L64.5665 28.6852L64.6845 28.5411L64.7977 28.395L64.9065 28.2471L65.0109 28.0974L65.1108 27.9459L65.206 27.7928L65.2967 27.6376L65.383 27.4805L65.4648 27.3219L65.5427 27.1611L65.6157 26.9985L65.6843 26.834L65.7484 26.6677L65.8082 26.4995L65.8635 26.3295L65.9144 26.1577L65.9612 25.9836L66.0032 25.8077L66.0409 25.6296L66.0741 25.45L66.1028 25.2682L66.1272 25.0842L66.1471 24.8983L66.1626 24.7106L66.1736 24.5211L66.1803 24.3293L66.1825 24.1354H66.6254L66.6232 24.3393L66.6161 24.5417L66.6043 24.742L66.5878 24.9404L66.5664 25.1369L66.5406 25.3316L66.5099 25.5245L66.4745 25.7155L66.4343 25.9047L66.3894 26.0921L66.3399 26.2772L66.2857 26.4605L66.2267 26.6419L66.1629 26.8215L66.0943 26.9989L66.021 27.174L65.9428 27.3477L65.8602 27.5192L65.7728 27.6885L65.6806 27.8559L65.5836 28.0211L65.4822 28.1845L65.376 28.3456L65.2653 28.5045L65.1499 28.6616L65.0297 28.8165L64.9051 28.9692L64.7756 29.12L64.6418 29.2686L64.5031 29.415L64.3596 29.5592L64.2118 29.7016L64.2114 29.7019L64.2129 29.7023ZM58.4744 31.9592V31.5159L58.6714 31.5137L58.8668 31.5074L59.06 31.4967L59.2518 31.482L59.4414 31.4632L59.6294 31.44L59.8153 31.4127L59.9997 31.3813L60.1822 31.3459L60.3629 31.3061L60.5418 31.2622L60.7191 31.2143L60.8947 31.1623L61.0684 31.1059L61.2402 31.0454L61.4106 30.9805L61.5791 30.9119L61.7458 30.8389L61.9114 30.7618L62.0747 30.6803L62.2366 30.5947L62.397 30.5051L62.5556 30.4115L62.7123 30.3134L62.8676 30.2112L63.021 30.1046L63.1729 29.994L63.3234 29.8793L63.472 29.7606L63.6192 29.637L63.7648 29.5094L63.9086 29.3778L64.2114 29.7012L64.0606 29.8395L63.9079 29.9734L63.7534 30.1032L63.5967 30.2285L63.4381 30.3495L63.2777 30.466L63.1154 30.5781L62.9513 30.6862L62.7854 30.7898L62.6176 30.889L62.4479 30.9838L62.2765 31.0745L62.1031 31.1604L61.928 31.2423L61.751 31.3197L61.5721 31.3928L61.3918 31.4613L61.2092 31.5255L61.0252 31.5853L60.8394 31.6406L60.6517 31.6915L60.4621 31.7379L60.2707 31.7796L60.0778 31.8172L59.8831 31.8504L59.6866 31.8788L59.4886 31.9031L59.2887 31.923L59.0873 31.9385L58.8841 31.9496L58.6791 31.9562L58.4726 31.9585L58.4744 31.9592ZM52.5774 29.7255L52.8802 29.4021L53.0229 29.5323L53.1675 29.6588L53.3142 29.7809L53.4628 29.8985L53.6137 30.0121L53.7663 30.1216L53.9212 30.2267L54.078 30.3277L54.2369 30.4247L54.398 30.5177L54.561 30.6062L54.7263 30.6906L54.8933 30.771L55.0622 30.8473L55.2333 30.9196L55.407 30.9875L55.5825 31.0513L55.7599 31.111L55.9395 31.1667L56.1213 31.2183L56.3053 31.2655L56.4916 31.309L56.68 31.3481L56.8707 31.3832L57.0635 31.4141L57.2582 31.4411L57.4552 31.4639L57.6547 31.4824L57.8564 31.4971L58.0603 31.5074L58.2664 31.5137L58.4748 31.5156V31.9588L58.2576 31.9566L58.0426 31.95L57.8298 31.9393L57.6189 31.9242L57.4102 31.9046L57.2033 31.8806L56.9986 31.8526L56.7958 31.8202L56.5952 31.7833L56.3968 31.742L56.2006 31.6963L56.0063 31.6461L55.8141 31.5915L55.6242 31.5329L55.4361 31.4698L55.2506 31.4023L55.067 31.3304L54.8856 31.2541L54.7063 31.1733L54.5293 31.0882L54.3545 30.9985L54.1819 30.9045L54.0116 30.806L53.8434 30.7035L53.6775 30.5966L53.5137 30.4852L53.3522 30.3694L53.1929 30.2496L53.0358 30.1249L52.8809 29.9962L52.7283 29.8631L52.5778 29.7255H52.5774ZM50.4024 23.7961V24.2393L50.6241 24.0177L50.6263 24.222L50.6329 24.4241L50.644 24.6236L50.6595 24.8209L50.6794 25.0156L50.7033 25.2081L50.7321 25.398L50.7653 25.5857L50.8029 25.7709L50.8449 25.9538L50.891 26.1345L50.9419 26.3126L50.9969 26.4885L51.0562 26.6622L51.12 26.8333L51.1883 27.0022L51.2609 27.1689L51.338 27.333L51.4195 27.4952L51.505 27.6553L51.5954 27.8127L51.6898 27.968L51.7886 28.121L51.8923 28.2722L51.9999 28.4212L52.112 28.5676L52.2289 28.7122L52.3499 28.8545L52.4756 28.9946L52.6058 29.1326L52.7404 29.2683L52.8798 29.4018L52.5771 29.7252L52.4299 29.5843L52.2876 29.4409L52.1497 29.2948L52.0162 29.1466L51.8875 28.9958L51.7636 28.8423L51.6441 28.6864L51.5294 28.5281L51.4191 28.3674L51.3137 28.204L51.213 28.0384L51.1167 27.8703L51.0253 27.6999L50.9386 27.5269L50.8564 27.3514L50.7789 27.174L50.7063 26.9937L50.6384 26.8112L50.575 26.6264L50.5164 26.4394L50.4625 26.2499L50.4135 26.0581L50.3692 25.8641L50.3294 25.6676L50.2944 25.4692L50.2641 25.2686L50.2383 25.0658L50.2173 24.8607L50.2011 24.6535L50.1896 24.4436L50.1826 24.232L50.1804 24.0181L50.4021 23.7965L50.4024 23.7961ZM50.1808 24.0177V23.7961H50.4024L50.1808 24.0177ZM53.187 24.2393H50.4024V23.7961H53.187L53.4086 24.0177L53.187 24.2393ZM53.187 23.7961H53.4086V24.0177L53.187 23.7961Z" fill="black"/>
<path d="M73.4211 7.62653H67.4286V5.26456H81.9515V7.62653H76.0298V31.3145H73.4211V7.62653Z" fill="black"/>
<path d="M67.4286 7.40491H73.4211V7.84817H67.4286L67.207 7.62654L67.4286 7.40491ZM67.4286 7.84817H67.207V7.62654L67.4286 7.84817ZM67.6502 5.26494V7.62654H67.2073V5.26494L67.429 5.0433L67.6506 5.26494H67.6502ZM67.2073 5.26494V5.0433H67.429L67.2073 5.26494ZM81.9519 5.48657H67.429V5.0433H81.9519L82.1735 5.26494L81.9519 5.48657ZM81.9519 5.0433H82.1735V5.26494L81.9519 5.0433ZM81.7303 7.62654V5.26494H82.1732V7.62654L81.9515 7.84817L81.7299 7.62654H81.7303ZM82.1732 7.62654V7.84817H81.9515L82.1732 7.62654ZM76.0298 7.40491H81.9519V7.84817H76.0298L75.8082 7.62654L76.0298 7.40491ZM75.8082 7.62654V7.40491H76.0298L75.8082 7.62654ZM75.8082 31.3145V7.62654H76.2511V31.3145L76.0294 31.5361L75.8078 31.3145H75.8082ZM76.2511 31.3145V31.5361H76.0294L76.2511 31.3145ZM73.4211 31.0929H76.0298V31.5361H73.4211L73.1995 31.3145L73.4211 31.0929ZM73.4211 31.5361H73.1995V31.3145L73.4211 31.5361ZM73.6428 7.62654V31.3145H73.1999V7.62654L73.4215 7.40491L73.6431 7.62654H73.6428ZM73.4211 7.40491H73.6428V7.62654L73.4211 7.40491Z" fill="black"/>
<path d="M90.9756 5.26462H93.866L105.04 31.3142L102.202 31.3201L98.4543 22.5721H86.3052L82.5393 31.3083L79.7311 31.3142L90.976 5.26462H90.9756ZM97.4029 20.2105L92.4212 8.23728L87.3274 20.2105H97.4029Z" fill="black"/>
<path d="M93.8661 5.4862H90.9756V5.04294H93.8661L94.0696 5.17717L93.8661 5.4862ZM93.8661 5.04294H94.0121L94.0696 5.17717L93.8661 5.04294ZM104.837 31.4015L93.6625 5.35197L94.0696 5.17717L105.244 31.2268L105.041 31.5354L104.836 31.4012L104.837 31.4015ZM105.244 31.2268L105.376 31.535L105.041 31.5358L105.244 31.2271V31.2268ZM102.202 31.0984L105.039 31.0925L105.041 31.5354L102.203 31.5413L101.999 31.4071L102.202 31.0984ZM102.203 31.5413L102.056 31.5417L101.999 31.4071L102.203 31.5413H102.203ZM98.6579 22.4847L102.406 31.2327L101.999 31.4071L98.2508 22.6591L98.4543 22.3504L98.6579 22.4847ZM98.4543 22.3504H98.6003L98.6579 22.4847L98.4543 22.3504ZM86.3052 22.3504H98.4543V22.7937H86.3052L86.1016 22.4843L86.3052 22.3504ZM86.1016 22.4843L86.1595 22.3504H86.3052L86.1016 22.4843ZM82.3357 31.2205L86.1016 22.4843L86.5087 22.6598L82.7429 31.396L82.54 31.5299L82.3361 31.2205H82.3357ZM82.7429 31.396L82.6853 31.5295L82.5397 31.5299L82.7425 31.396H82.7429ZM79.7304 31.0925L82.5386 31.0866L82.5397 31.5295L79.7315 31.5354L79.5275 31.226L79.7304 31.0925ZM79.7315 31.5354L79.3937 31.5361L79.5275 31.226L79.7315 31.5354ZM91.1792 5.35234L79.9343 31.4019L79.5275 31.226L90.7725 5.17644L90.9756 5.04257L91.1788 5.35197L91.1792 5.35234ZM90.7725 5.17644L90.8304 5.04257H90.976L90.7728 5.17644H90.7725ZM92.6255 8.15204L97.6073 20.1253L97.1983 20.2957L92.2166 8.32242L92.2173 8.15057L92.6259 8.15204H92.6255ZM92.2169 8.15057L92.4231 7.66601L92.6255 8.15204L92.2169 8.15057ZM87.1231 20.1238L92.2169 8.15057L92.6248 8.32389L87.531 20.2971L87.327 20.4321L87.1231 20.1238ZM87.327 20.4321H86.9922L87.1235 20.1238L87.3274 20.4321H87.327ZM97.4026 20.4321H87.327V19.9888H97.4026L97.6073 20.1253L97.4026 20.4321ZM97.6073 20.1253L97.7348 20.4321H97.4026L97.6073 20.1253Z" fill="black"/>
<path d="M108.107 5.26453L111.62 5.27043L126.225 26.9139V5.26453H128.834V31.3145H126.225L110.715 8.40203V31.3145H108.107V5.26453Z" fill="black"/>
<path d="M111.62 5.4921L108.107 5.4862L108.107 5.04331L111.621 5.04921L111.804 5.14656L111.62 5.4921ZM111.621 5.04921L111.738 5.04958L111.804 5.14693L111.621 5.04958V5.04921ZM126.042 27.0383L111.437 5.39475L111.804 5.14693L126.409 26.7904L126.447 26.9143L126.042 27.0383ZM126.447 26.9143V27.6386L126.042 27.0383L126.447 26.9143ZM126.447 5.26494V26.9143H126.004V5.26494L126.226 5.04331L126.447 5.26494H126.447ZM126.004 5.26494V5.04331H126.226L126.004 5.26494ZM128.834 5.48657H126.225V5.04331H128.834L129.056 5.26494L128.834 5.48657ZM128.834 5.04331H129.056V5.26494L128.834 5.04331ZM128.612 31.3145V5.26494H129.055V31.3145L128.834 31.5361L128.612 31.3145H128.612ZM129.055 31.3145V31.5361H128.834L129.055 31.3145ZM126.225 31.0929H128.834V31.5361H126.225L126.042 31.4388L126.225 31.0929ZM126.225 31.5361H126.108L126.042 31.4388L126.225 31.5361H126.225ZM110.899 8.27779L126.409 31.1902L126.042 31.4388L110.532 8.52634L110.494 8.40207L110.899 8.27779ZM110.494 8.40207V7.67965L110.899 8.27779L110.494 8.40207ZM110.494 31.3145V8.40207H110.937V31.3145L110.715 31.5361L110.494 31.3145H110.494ZM110.937 31.3145V31.5361H110.715L110.937 31.3145ZM108.107 31.0929H110.715V31.5361H108.107L107.885 31.3145L108.107 31.0929ZM108.107 31.5361H107.885V31.3145L108.107 31.5361ZM108.329 5.26494V31.3145H107.886V5.26494L108.108 5.04331L108.329 5.26494H108.329ZM107.886 5.26494V5.04294L108.108 5.04331L107.886 5.26494Z" fill="black"/>
<path d="M134.192 5.26453H141.206C143.298 5.26453 145.166 5.4821 146.811 5.91688C148.456 6.35166 150.007 7.16222 151.464 8.34892C152.921 9.53563 154.072 11.0044 154.918 12.7554C155.764 14.5063 156.187 16.3332 156.187 18.2368C156.187 20.0699 155.817 21.8323 155.077 23.5242C154.337 25.2161 153.262 26.7026 151.852 27.9834C150.441 29.2641 148.832 30.1632 147.022 30.6798C145.518 31.1028 143.638 31.3141 141.382 31.3141H134.192V5.26453H134.192ZM140.149 28.9525C142.358 28.9525 143.991 28.8467 145.049 28.6354C146.741 28.3064 148.245 27.6131 149.561 26.5559C152.24 24.4642 153.579 21.6914 153.579 18.2368C153.579 14.8762 152.228 12.127 149.526 9.98848C148.233 8.97804 146.753 8.30836 145.084 7.97942C143.909 7.74451 142.264 7.62687 140.149 7.62687H136.801V28.9529H140.149L140.149 28.9525Z" fill="black"/>
<path d="M141.206 5.4862H134.192V5.04294H141.206V5.4862ZM146.868 5.70267L146.754 6.13118L146.602 6.09172L146.448 6.05337L146.292 6.01649L146.136 5.98072L145.977 5.94606L145.818 5.91287L145.657 5.88078L145.495 5.84981L145.332 5.82031L145.167 5.79191L145.001 5.76462L144.834 5.73881L144.665 5.71447L144.495 5.69124L144.324 5.66911L144.151 5.64846L143.977 5.62891L143.802 5.61084L143.625 5.59388L143.447 5.57802L143.268 5.56327L143.087 5.55L142.906 5.53783L142.722 5.52713L142.537 5.51755L142.352 5.50943L142.164 5.50243L141.975 5.49653L141.786 5.4921L141.594 5.48915L141.402 5.48731L141.208 5.48694V5.04368L141.405 5.04441L141.6 5.04626L141.794 5.04921L141.988 5.05363L142.179 5.05953L142.37 5.06654L142.559 5.07465L142.747 5.08461L142.934 5.09567L143.119 5.10784L143.303 5.12112L143.486 5.13587L143.667 5.15173L143.847 5.16906L144.026 5.1875L144.203 5.20741L144.38 5.2288L144.554 5.25129L144.728 5.27526L144.9 5.30034L145.071 5.32689L145.241 5.35455L145.409 5.38331L145.577 5.41355L145.743 5.44527L145.907 5.47809L146.071 5.51238L146.233 5.54779L146.394 5.58466L146.553 5.62265L146.712 5.6621L146.869 5.70267H146.868ZM151.604 8.17712L151.324 8.52081L151.189 8.41239L151.054 8.30619L150.917 8.20219L150.781 8.10041L150.645 8.00085L150.507 7.90349L150.369 7.80798L150.231 7.71468L150.092 7.62396L149.953 7.53509L149.813 7.44843L149.672 7.36398L149.531 7.28174L149.39 7.20172L149.248 7.12391L149.105 7.04794L148.962 6.97456L148.818 6.90302L148.674 6.83369L148.53 6.76694L148.384 6.70204L148.239 6.63935L148.093 6.57887L147.946 6.5206L147.799 6.46455L147.651 6.41034L147.503 6.35871L147.354 6.30893L147.204 6.26136L147.055 6.216L146.904 6.17285L146.753 6.13192L146.866 5.70341L147.024 5.74618L147.18 5.79117L147.336 5.83838L147.491 5.88779L147.646 5.93942L147.8 5.99326L147.954 6.04931L148.107 6.10758L148.259 6.16806L148.411 6.23112L148.562 6.29639L148.713 6.36351L148.863 6.43283L149.012 6.50474L149.161 6.57887L149.31 6.6552L149.457 6.73375L149.605 6.81451L149.751 6.89748L149.897 6.98267L150.042 7.07007L150.187 7.15968L150.331 7.2515L150.475 7.34554L150.618 7.44179L150.76 7.54025L150.902 7.64093L151.044 7.74418L151.184 7.84928L151.324 7.95659L151.464 8.06612L151.602 8.17786L151.604 8.17712ZM155.118 12.6588L154.719 12.8513L154.64 12.6905L154.559 12.5316L154.477 12.3741L154.392 12.2181L154.306 12.064L154.219 11.9117L154.129 11.7608L154.038 11.6118L153.945 11.4643L153.851 11.3183L153.754 11.1741L153.656 11.0314L153.556 10.8905L153.454 10.7511L153.351 10.6136L153.246 10.4775L153.139 10.3433L153.03 10.2105L152.92 10.0792L152.808 9.9498L152.694 9.82183L152.578 9.69572L152.46 9.57107L152.341 9.4479L152.22 9.32621L152.098 9.20636L151.973 9.08798L151.847 8.97145L151.719 8.85639L151.589 8.74281L151.457 8.63108L151.324 8.52081L151.604 8.17712L151.742 8.29107L151.878 8.40686L152.012 8.5245L152.145 8.64324L152.276 8.7642L152.405 8.88663L152.532 9.01091L152.658 9.13666L152.781 9.26425L152.903 9.39332L153.023 9.52424L153.141 9.65699L153.257 9.79086L153.372 9.92693L153.484 10.0645L153.595 10.2039L153.704 10.3448L153.81 10.4875L153.916 10.6317L154.019 10.7777L154.121 10.9252L154.221 11.0745L154.319 11.2254L154.415 11.378L154.509 11.5326L154.602 11.6886L154.693 11.846L154.781 12.0053L154.868 12.1661L154.954 12.3287L155.037 12.4928L155.118 12.6588H155.118ZM156.409 18.2364H155.966L155.964 18.0613L155.961 17.8865L155.954 17.7124L155.946 17.5387L155.935 17.3654L155.922 17.1924L155.906 17.0199L155.888 16.848L155.867 16.6765L155.844 16.5054L155.818 16.3347L155.79 16.1647L155.76 15.9951L155.727 15.8254L155.692 15.6569L155.654 15.4884L155.613 15.3206L155.571 15.1531L155.526 14.9861L155.478 14.8194L155.429 14.6531L155.376 14.4872L155.322 14.3219L155.264 14.1567L155.204 13.9923L155.142 13.8282L155.078 13.6644L155.011 13.5011L154.941 13.3381L154.87 13.1754L154.795 13.0135L154.719 12.8517L155.118 12.6592L155.197 12.8262L155.274 12.9936L155.348 13.1618L155.42 13.3303L155.489 13.4992L155.556 13.6688L155.621 13.8389L155.682 14.0092L155.741 14.18L155.798 14.3511L155.852 14.5229L155.904 14.6951L155.953 14.8677L156 15.0407L156.044 15.2144L156.086 15.3884L156.125 15.5629L156.161 15.738L156.195 15.9136L156.227 16.0895L156.256 16.2657L156.283 16.4427L156.307 16.6201L156.328 16.7982L156.347 16.9764L156.363 17.1552L156.377 17.3344L156.389 17.514L156.397 17.694L156.404 17.8743L156.407 18.055L156.409 18.2364ZM155.28 23.6127L154.874 23.4354L154.941 23.279L155.006 23.1223L155.069 22.9652L155.13 22.8077L155.188 22.6499L155.245 22.4917L155.299 22.3331L155.351 22.1742L155.401 22.0149L155.449 21.8552L155.495 21.6951L155.538 21.5347L155.58 21.3736L155.62 21.212L155.657 21.0502L155.692 20.8879L155.725 20.7253L155.756 20.5623L155.784 20.3989L155.811 20.2352L155.836 20.0711L155.858 19.9066L155.878 19.7414L155.896 19.5758L155.912 19.4099L155.926 19.2436L155.938 19.0769L155.947 18.9098L155.954 18.742L155.96 18.5742L155.963 18.4061L155.964 18.2372H156.407L156.406 18.4116L156.403 18.5857L156.397 18.7594L156.389 18.9327L156.379 19.1056L156.367 19.2778L156.353 19.4501L156.336 19.6215L156.317 19.7927L156.296 19.9634L156.273 20.1338L156.248 20.3038L156.22 20.473L156.19 20.6423L156.158 20.8108L156.124 20.979L156.087 21.1468L156.049 21.3142L156.008 21.4813L155.965 21.6476L155.92 21.8139L155.872 21.9795L155.823 22.1447L155.771 22.3095L155.717 22.474L155.661 22.6381L155.602 22.8014L155.542 22.9644L155.479 23.1271L155.414 23.2893L155.347 23.4512L155.277 23.6124L155.28 23.6127ZM152.001 28.1471L151.703 27.8193L151.832 27.7006L151.959 27.5807L152.085 27.4594L152.208 27.3373L152.329 27.2138L152.449 27.0891L152.567 26.9634L152.682 26.8365L152.796 26.7086L152.908 26.5791L153.018 26.4486L153.125 26.3169L153.231 26.1842L153.335 26.0499L153.437 25.915L153.537 25.7785L153.635 25.641L153.731 25.5023L153.826 25.3626L153.918 25.2217L154.008 25.0793L154.097 24.9359L154.183 24.7913L154.268 24.6457L154.35 24.4985L154.431 24.3503L154.51 24.2009L154.587 24.0505L154.662 23.8989L154.735 23.7459L154.806 23.5917L154.875 23.4365L155.281 23.6139L155.21 23.7746L155.136 23.9339L155.06 24.0925L154.983 24.2496L154.903 24.4052L154.822 24.5597L154.738 24.7132L154.652 24.8655L154.565 25.0163L154.475 25.166L154.384 25.3146L154.29 25.4618L154.194 25.6078L154.097 25.7527L153.997 25.8962L153.896 26.0385L153.792 26.1794L153.687 26.3195L153.579 26.4582L153.47 26.5957L153.358 26.7318L153.245 26.8668L153.129 27.0006L153.012 27.1334L152.893 27.2647L152.771 27.3945L152.648 27.5232L152.523 27.6508L152.395 27.7773L152.266 27.9023L152.135 28.0262L152.002 28.1486L152.001 28.1471ZM147.083 30.893L146.963 30.4663L146.962 30.4667L147.128 30.418L147.293 30.3671L147.457 30.314L147.619 30.2587L147.78 30.2012L147.941 30.1415L148.1 30.0795L148.257 30.0153L148.414 29.949L148.57 29.8804L148.724 29.8099L148.877 29.7369L149.03 29.6617L149.181 29.5846L149.33 29.505L149.479 29.4235L149.626 29.3397L149.773 29.2538L149.918 29.1657L150.062 29.0753L150.205 28.9828L150.347 28.888L150.488 28.791L150.627 28.6918L150.766 28.5904L150.903 28.4868L151.039 28.3809L151.174 28.2729L151.308 28.1626L151.441 28.0502L151.573 27.9355L151.703 27.8186L152.001 28.1464L151.866 28.2674L151.73 28.3861L151.592 28.5026L151.454 28.617L151.314 28.7291L151.173 28.839L151.031 28.9463L150.887 29.0514L150.743 29.1543L150.597 29.2549L150.449 29.3534L150.301 29.4496L150.152 29.5437L150.001 29.6351L149.849 29.7244L149.696 29.8114L149.542 29.8962L149.386 29.9785L149.229 30.0585L149.071 30.1363L148.912 30.2119L148.752 30.2853L148.591 30.3564L148.428 30.425L148.264 30.4914L148.099 30.5556L147.933 30.6175L147.766 30.6773L147.597 30.7348L147.427 30.7898L147.257 30.8425L147.084 30.893L147.084 30.8934L147.083 30.893ZM141.383 31.5358V31.0925L141.592 31.0921L141.799 31.0903L142.004 31.0874L142.206 31.0829L142.406 31.0774L142.604 31.0708L142.8 31.0626L142.993 31.0534L143.184 31.0427L143.373 31.0313L143.56 31.0184L143.745 31.0044L143.927 30.9889L144.107 30.9723L144.285 30.9546L144.46 30.9354L144.634 30.9155L144.805 30.8941L144.973 30.8713L145.14 30.8473L145.304 30.8222L145.466 30.796L145.626 30.7684L145.783 30.7396L145.939 30.7097L146.092 30.6788L146.243 30.6463L146.391 30.6127L146.538 30.5781L146.682 30.5419L146.824 30.5047L146.963 30.4663L147.083 30.893L146.938 30.9328L146.792 30.9712L146.643 31.0084L146.491 31.0446L146.338 31.0792L146.183 31.1124L146.026 31.1445L145.866 31.1751L145.704 31.2046L145.54 31.233L145.374 31.2599L145.206 31.2858L145.035 31.3101L144.863 31.3333L144.688 31.3554L144.511 31.3761L144.332 31.3956L144.15 31.4137L143.967 31.4307L143.781 31.4462L143.594 31.4605L143.404 31.4738L143.212 31.4856L143.017 31.4963L142.821 31.5055L142.622 31.5137L142.421 31.5207L142.218 31.5262L142.013 31.5306L141.805 31.5336L141.596 31.5354L141.384 31.5361L141.383 31.5358ZM134.192 31.0925H141.383V31.5358H134.192L133.971 31.3141L134.192 31.0925ZM134.192 31.5358H133.971V31.3141L134.192 31.5358ZM134.414 5.26457V31.3141H133.971V5.26457L134.193 5.04294L134.414 5.26457H134.414ZM133.971 5.26457V5.04294H134.193L133.971 5.26457ZM145.007 28.4178L145.092 28.8526L145.093 28.8522L144.989 28.8721L144.883 28.8917L144.773 28.9105L144.659 28.9286L144.543 28.9459L144.423 28.9625L144.3 28.9787L144.174 28.9942L144.045 29.009L143.912 29.0233L143.776 29.0366L143.636 29.0495L143.494 29.0617L143.348 29.0731L143.198 29.0838L143.046 29.0941L142.89 29.1037L142.73 29.1126L142.568 29.1211L142.402 29.1292L142.233 29.1362L142.06 29.1428L141.884 29.1491L141.705 29.1543L141.522 29.1591L141.336 29.1631L141.147 29.1668L140.954 29.1694L140.758 29.1716L140.558 29.1731L140.355 29.1742L140.149 29.1745V28.7313H140.354L140.555 28.7302L140.753 28.7287L140.947 28.7265L141.139 28.7239L141.326 28.7202L141.511 28.7162L141.692 28.7114L141.869 28.7062L142.043 28.7003L142.214 28.6937L142.382 28.6867L142.545 28.6789L142.706 28.6704L142.863 28.6616L143.016 28.6524L143.166 28.642L143.313 28.6313L143.456 28.6199L143.596 28.6077L143.733 28.5952L143.866 28.5819L143.995 28.5683L144.121 28.5539L144.244 28.5392L144.363 28.5237L144.479 28.5074L144.591 28.4908L144.7 28.4735L144.805 28.4558L144.906 28.4374L145.005 28.4182L145.006 28.4178H145.007ZM149.425 26.3811L149.698 26.7303L149.7 26.7285L149.574 26.8284L149.446 26.9261L149.317 27.022L149.188 27.1157L149.056 27.2072L148.924 27.2964L148.791 27.3834L148.657 27.4682L148.521 27.5508L148.384 27.6312L148.246 27.7098L148.107 27.7857L147.967 27.8599L147.825 27.9318L147.683 28.0015L147.54 28.069L147.395 28.1342L147.249 28.1973L147.102 28.2581L146.954 28.3168L146.805 28.3732L146.655 28.4274L146.504 28.4798L146.352 28.5299L146.198 28.5775L146.043 28.6232L145.888 28.6667L145.731 28.708L145.573 28.7471L145.414 28.784L145.254 28.8187L145.093 28.8511L145.009 28.4163L145.164 28.385L145.317 28.3518L145.47 28.3164L145.622 28.2788L145.772 28.2393L145.921 28.1977L146.07 28.1538L146.217 28.1081L146.363 28.0601L146.508 28.0103L146.652 27.958L146.794 27.9041L146.936 27.8477L147.076 27.7894L147.216 27.729L147.354 27.6663L147.492 27.6017L147.628 27.535L147.763 27.466L147.897 27.3952L148.03 27.3222L148.162 27.247L148.293 27.1699L148.423 27.0906L148.552 27.0091L148.679 26.9258L148.806 26.8402L148.932 26.7525L149.056 26.6628L149.179 26.571L149.302 26.477L149.423 26.3811L149.426 26.3793L149.425 26.3811ZM153.358 18.2368H153.801L153.797 18.5643L153.785 18.8877L153.765 19.2074L153.737 19.5231L153.701 19.8351L153.657 20.143L153.605 20.4469L153.545 20.747L153.477 21.0432L153.4 21.3352L153.316 21.6236L153.224 21.9079L153.123 22.1882L153.015 22.4644L152.898 22.7365L152.774 23.0046L152.641 23.2687L152.501 23.5287L152.352 23.7846L152.195 24.0365L152.031 24.2839L151.858 24.5273L151.677 24.7666L151.489 25.0019L151.292 25.2328L151.088 25.4595L150.876 25.6819L150.656 25.9002L150.428 26.1145L150.192 26.3243L149.948 26.5305L149.697 26.7322L149.424 26.3829L149.667 26.1886L149.902 25.9902L150.129 25.7881L150.348 25.582L150.56 25.3721L150.764 25.1586L150.959 24.9414L151.148 24.7202L151.328 24.4952L151.5 24.2666L151.665 24.0339L151.823 23.7975L151.972 23.5574L152.114 23.3133L152.248 23.0651L152.374 22.8132L152.493 22.5573L152.605 22.2973L152.708 22.0337L152.804 21.7659L152.892 21.4942L152.973 21.2183L153.046 20.9388L153.111 20.6552L153.169 20.3672L153.219 20.0755L153.261 19.7794L153.296 19.4792L153.323 19.1753L153.342 18.867L153.354 18.5547L153.358 18.2383L153.358 18.2368ZM149.39 10.1629L149.663 9.81372L149.664 9.81446L149.917 10.0202L150.163 10.2297L150.4 10.4428L150.63 10.6601L150.852 10.8806L151.066 11.1052L151.272 11.3334L151.47 11.5654L151.66 11.8014L151.842 12.0411L152.016 12.2845L152.182 12.5316L152.339 12.7823L152.489 13.0368L152.631 13.2953L152.765 13.5571L152.89 13.8226L153.008 14.0918L153.117 14.3647L153.218 14.6413L153.312 14.9216L153.396 15.2055L153.473 15.4928L153.542 15.7837L153.603 16.0784L153.656 16.3764L153.7 16.678L153.736 16.983L153.765 17.2916L153.785 17.6036L153.797 17.9189L153.801 18.2379H153.358L153.354 17.9304L153.343 17.6265L153.323 17.3263L153.296 17.0298L153.261 16.737L153.218 16.4479L153.168 16.1621L153.11 15.88L153.044 15.6016L152.971 15.3268L152.89 15.0558L152.801 14.7881L152.704 14.524L152.6 14.2637L152.488 14.0066L152.368 13.7533L152.24 13.5033L152.105 13.2566L151.962 13.0135L151.811 12.7738L151.652 12.5375L151.486 12.3048L151.311 12.0754L151.129 11.8493L150.94 11.6266L150.742 11.4075L150.536 11.1918L150.322 10.9794L150.101 10.7703L149.872 10.5649L149.634 10.3625L149.389 10.1637L149.39 10.1644L149.39 10.1629ZM145.041 8.19629L145.128 7.76151H145.127L145.286 7.79397L145.444 7.82863L145.601 7.86514L145.756 7.90349L145.911 7.94406L146.064 7.98683L146.217 8.03182L146.368 8.07866L146.518 8.1277L146.667 8.17859L146.815 8.2317L146.962 8.28664L147.107 8.34343L147.252 8.40244L147.395 8.46328L147.538 8.52634L147.679 8.59162L147.819 8.65873L147.958 8.72806L148.096 8.79923L148.232 8.87262L148.368 8.94822L148.503 9.02566L148.636 9.10531L148.768 9.18681L148.9 9.27015L149.03 9.35571L149.158 9.44348L149.286 9.53309L149.413 9.62491L149.538 9.71858L149.663 9.81409L149.39 10.1633L149.271 10.0715L149.15 9.98151L149.029 9.89375L148.907 9.80782L148.783 9.72411L148.659 9.64224L148.533 9.56222L148.406 9.48404L148.279 9.40807L148.15 9.33395L148.02 9.26204L147.889 9.19197L147.757 9.12338L147.625 9.057L147.49 8.99284L147.355 8.93015L147.219 8.86967L147.081 8.8114L146.943 8.75461L146.803 8.70003L146.663 8.6473L146.521 8.59678L146.378 8.54773L146.234 8.5009L146.088 8.45591L145.942 8.41276L145.795 8.37183L145.647 8.33274L145.497 8.29549L145.346 8.26046L145.195 8.22727L145.042 8.19593H145.041L145.041 8.19629ZM140.15 7.84818V7.40491L140.347 7.40528L140.542 7.40639L140.735 7.40823L140.924 7.41044L141.111 7.41339L141.295 7.41708L141.477 7.42151L141.655 7.42667L141.831 7.43257L142.004 7.43921L142.175 7.44658L142.342 7.4547L142.508 7.46318L142.67 7.47277L142.83 7.48272L142.986 7.49342L143.14 7.50485L143.292 7.51702L143.441 7.52993L143.587 7.54357L143.73 7.55795L143.87 7.57307L144.008 7.58856L144.143 7.60516L144.276 7.62212L144.406 7.63982L144.533 7.65826L144.658 7.67743L144.78 7.69735L144.899 7.718L145.015 7.73939L145.129 7.76151L145.043 8.19629L144.933 8.17491L144.821 8.15425L144.706 8.13434L144.589 8.1148L144.468 8.09636L144.345 8.07829L144.218 8.06096L144.089 8.04399L143.958 8.02814L143.823 8.01265L143.685 7.99826L143.545 7.98425L143.402 7.97098L143.256 7.95844L143.107 7.94627L142.956 7.9352L142.802 7.92451L142.644 7.91455L142.484 7.90533L142.322 7.89685L142.156 7.88911L141.988 7.88173L141.817 7.8751L141.643 7.8692L141.466 7.86403L141.287 7.85961L141.104 7.85592L140.919 7.85297L140.732 7.85076L140.541 7.84891L140.347 7.84781L140.151 7.84744L140.15 7.84818ZM136.801 7.40491H140.15V7.84818H136.801L136.579 7.62654L136.801 7.40491ZM136.579 7.62654V7.40491H136.801L136.579 7.62654ZM136.579 28.9525V7.62654H137.022V28.9525L136.801 29.1742L136.579 28.9525H136.579ZM136.801 29.1742H136.579V28.9525L136.801 29.1742ZM140.15 29.1742H136.801V28.7309H140.15V29.1742Z" fill="black"/>
<path d="M169.371 5.26462H172.261L183.435 31.3142L180.598 31.3201L176.849 22.5721H164.7L160.934 31.3083L158.126 31.3142L169.371 5.26462H169.371ZM175.798 20.2105L170.816 8.23728L165.723 20.2105H175.798Z" fill="black"/>
<path d="M172.262 5.4862H169.371V5.04294H172.262L172.465 5.17717L172.262 5.4862ZM172.262 5.04294H172.408L172.465 5.17717L172.262 5.04294ZM183.232 31.4015L172.058 5.35197L172.465 5.17717L183.639 31.2268L183.436 31.5354L183.232 31.4012L183.232 31.4015ZM183.639 31.2268L183.771 31.535L183.436 31.5358L183.639 31.2271V31.2268ZM180.597 31.0984L183.435 31.0925L183.436 31.5354L180.598 31.5413L180.394 31.4071L180.597 31.0984ZM180.598 31.5413L180.452 31.5417L180.394 31.4071L180.599 31.5413H180.598ZM177.053 22.4847L180.802 31.2327L180.394 31.4071L176.646 22.6591L176.85 22.3504L177.053 22.4847ZM176.85 22.3504H176.996L177.053 22.4847L176.85 22.3504ZM164.701 22.3504H176.85V22.7937H164.701L164.497 22.4843L164.701 22.3504ZM164.497 22.4843L164.555 22.3504H164.701L164.497 22.4843ZM160.731 31.2205L164.497 22.4843L164.904 22.6598L161.138 31.396L160.936 31.5299L160.732 31.2205H160.731ZM161.138 31.396L161.081 31.5295L160.935 31.5299L161.138 31.396H161.138ZM158.126 31.0925L160.934 31.0866L160.935 31.5295L158.127 31.5354L157.923 31.226L158.126 31.0925ZM158.127 31.5354L157.789 31.5361L157.923 31.226L158.127 31.5354ZM169.575 5.35234L158.33 31.4019L157.923 31.226L169.168 5.17644L169.371 5.04257L169.574 5.35197L169.575 5.35234ZM169.168 5.17644L169.226 5.04257H169.372L169.168 5.17644H169.168ZM171.021 8.15204L176.003 20.1253L175.594 20.2957L170.612 8.32242L170.613 8.15057L171.021 8.15204H171.021ZM170.612 8.15057L170.819 7.66601L171.021 8.15204L170.612 8.15057ZM165.519 20.1238L170.612 8.15057L171.02 8.32389L165.926 20.2971L165.723 20.4321L165.519 20.1238ZM165.723 20.4321H165.388L165.519 20.1238L165.723 20.4321H165.723ZM175.798 20.4321H165.723V19.9888H175.798L176.003 20.1253L175.798 20.4321ZM176.003 20.1253L176.13 20.4321H175.798L176.003 20.1253Z" fill="black"/>
<path d="M186.502 5.26462H192.706C194.492 5.26462 195.914 5.32915 196.971 5.45859C198.029 5.58803 199.074 5.94611 200.109 6.53393C201.425 7.28585 202.429 8.28485 203.122 9.53019C203.816 10.7755 204.162 12.1798 204.162 13.7541C204.162 15.869 203.41 17.7021 201.906 19.2532C200.408 20.8042 198.599 21.5798 196.489 21.5798L203.821 31.3087L200.567 31.3146L191.719 19.5058H192.495H193.2C194.445 19.5058 195.397 19.4708 196.055 19.4C196.713 19.3295 197.418 19.1297 198.17 18.8007C199.251 18.3073 200.085 17.6022 200.673 16.6858C201.26 15.7694 201.554 14.7118 201.554 13.5133C201.554 12.5969 201.337 11.7214 200.902 10.8873C200.467 10.0531 199.874 9.37161 199.122 8.8428C198.37 8.31398 197.518 7.97914 196.566 7.83827C195.614 7.6974 194.504 7.62659 193.235 7.62659H189.111V31.3146H186.502V5.26499V5.26462Z" fill="black"/>
<path d="M192.706 5.48627H186.502V5.04301H192.706V5.48627ZM196.998 5.23846L196.944 5.6784L196.846 5.6666L196.745 5.65517L196.642 5.64411L196.536 5.63341L196.429 5.62309L196.319 5.61313L196.207 5.60354L196.093 5.59432L195.976 5.58547L195.858 5.57699L195.737 5.56888L195.615 5.56113L195.49 5.55376L195.363 5.54675L195.234 5.54011L195.102 5.53385L194.969 5.52795L194.833 5.52241L194.695 5.51725L194.555 5.51246L194.413 5.50803L194.269 5.50398L194.122 5.50029L193.974 5.49697L193.823 5.49402L193.67 5.49144L193.515 5.48922L193.357 5.48738L193.198 5.48591L193.036 5.48517L192.872 5.48443H192.707V5.04117L192.873 5.04154L193.038 5.04227L193.201 5.04301L193.361 5.04449L193.52 5.04633L193.676 5.04854L193.83 5.05113L193.982 5.05408L194.132 5.05739L194.28 5.06108L194.425 5.06514L194.569 5.06956L194.711 5.07436L194.85 5.07952L194.987 5.08505L195.123 5.09095L195.256 5.09722L195.387 5.10386L195.515 5.11087L195.642 5.11861L195.767 5.12635L195.889 5.13447L196.01 5.14295L196.128 5.15217L196.245 5.16139L196.359 5.17134L196.471 5.18167L196.581 5.19236L196.689 5.20306L196.794 5.21449L196.898 5.22629L196.999 5.23846H196.998ZM200.219 6.34108L199.999 6.72608L199.999 6.72645L199.905 6.67335L199.81 6.62135L199.715 6.57083L199.619 6.52141L199.524 6.47347L199.43 6.42664L199.334 6.38165L199.239 6.33777L199.144 6.29499L199.049 6.25369L198.954 6.21349L198.859 6.17477L198.763 6.13752L198.668 6.10175L198.573 6.06709L198.477 6.0339L198.382 6.00182L198.286 5.97121L198.191 5.94171L198.095 5.91368L198 5.88713L197.904 5.86168L197.808 5.83734L197.713 5.81448L197.617 5.79309L197.521 5.77281L197.425 5.754L197.329 5.7363L197.233 5.72007L197.137 5.70532L197.041 5.69168L196.944 5.67914L196.998 5.2392L197.1 5.25247L197.202 5.26722L197.304 5.28308L197.406 5.30041L197.508 5.31922L197.609 5.33913L197.711 5.36052L197.812 5.38339L197.914 5.40773L198.015 5.43317L198.116 5.46009L198.217 5.48849L198.318 5.51836L198.419 5.54933L198.52 5.58179L198.621 5.61571L198.721 5.65075L198.822 5.68725L198.922 5.72524L199.022 5.76433L199.123 5.80489L199.223 5.84693L199.323 5.89008L199.423 5.9347L199.523 5.9808L199.622 6.02837L199.722 6.07704L199.821 6.1272L199.921 6.17883L200.02 6.23193L200.119 6.28614L200.218 6.34182L200.219 6.34219V6.34108ZM203.316 9.42179L202.929 9.63752L202.865 9.52468L202.799 9.41331L202.732 9.30342L202.662 9.195L202.591 9.08806L202.518 8.98259L202.444 8.87859L202.368 8.77571L202.289 8.67429L202.21 8.57436L202.128 8.4759L202.044 8.37854L201.959 8.28303L201.872 8.18862L201.783 8.09569L201.693 8.00387L201.601 7.91389L201.506 7.82502L201.41 7.73762L201.313 7.65169L201.213 7.56725L201.112 7.4839L201.008 7.40204L200.903 7.32164L200.796 7.24236L200.688 7.16455L200.578 7.08821L200.465 7.01335L200.351 6.9396L200.235 6.86732L200.117 6.79615L199.998 6.72682L200.218 6.34182L200.343 6.41484L200.467 6.48933L200.588 6.5653L200.708 6.64274L200.826 6.72166L200.943 6.80205L201.057 6.88391L201.169 6.96726L201.28 7.05207L201.389 7.13873L201.497 7.22687L201.602 7.31648L201.705 7.40757L201.807 7.50013L201.906 7.59417L202.004 7.68968L202.1 7.78666L202.194 7.88513L202.286 7.98506L202.377 8.08684L202.465 8.18973L202.552 8.29446L202.637 8.40067L202.72 8.50835L202.801 8.6175L202.88 8.72777L202.957 8.83987L203.032 8.95345L203.106 9.06851L203.177 9.18504L203.247 9.30305L203.315 9.42216L203.316 9.42179ZM204.384 13.7537H203.941L203.94 13.6095L203.937 13.4665L203.933 13.3245L203.926 13.1836L203.917 13.0435L203.906 12.9048L203.893 12.7669L203.878 12.6297L203.861 12.494L203.843 12.3591L203.822 12.2252L203.799 12.0924L203.774 11.9608L203.748 11.8299L203.719 11.7001L203.688 11.571L203.656 11.4434L203.621 11.3162L203.585 11.1904L203.546 11.0654L203.505 10.9411L203.463 10.818L203.418 10.6955L203.372 10.5742L203.323 10.4536L203.273 10.3341L203.221 10.2158L203.166 10.0981L203.11 9.98159L203.052 9.86579L202.992 9.75074L202.93 9.63679L203.317 9.42106L203.383 9.54164L203.447 9.66297L203.508 9.7854L203.568 9.90894L203.625 10.0332L203.681 10.1586L203.734 10.2847L203.786 10.4119L203.835 10.5403L203.882 10.6693L203.927 10.7995L203.97 10.9304L204.01 11.0625L204.049 11.1956L204.085 11.3294L204.12 11.4644L204.152 11.6005L204.182 11.7373L204.21 11.8749L204.237 12.0135L204.26 12.1533L204.282 12.2938L204.302 12.4354L204.32 12.5781L204.335 12.7212L204.349 12.8657L204.36 13.0114L204.37 13.1578L204.377 13.3049L204.382 13.4536L204.385 13.6029L204.386 13.753L204.384 13.7537ZM202.066 19.4066L201.748 19.0987L201.748 19.0983L201.884 18.9556L202.015 18.8114L202.142 18.6658L202.264 18.5183L202.382 18.3693L202.496 18.2188L202.605 18.0669L202.711 17.9135L202.811 17.7586L202.907 17.6019L203 17.4437L203.087 17.284L203.171 17.1228L203.25 16.9602L203.325 16.7961L203.395 16.6301L203.461 16.4627L203.523 16.2938L203.581 16.1231L203.635 15.9509L203.684 15.7768L203.729 15.6013L203.77 15.4243L203.806 15.2454L203.838 15.0647L203.866 14.8825L203.89 14.6985L203.909 14.513L203.924 14.3257L203.935 14.1365L203.941 13.9459L203.944 13.7534H204.387L204.384 13.9558L204.378 14.1568L204.367 14.3559L204.351 14.554L204.331 14.7502L204.306 14.9445L204.276 15.1374L204.242 15.3288L204.204 15.5183L204.161 15.706L204.113 15.8926L204.061 16.0774L204.004 16.2603L203.943 16.4417L203.877 16.6213L203.807 16.7994L203.732 16.9757L203.652 17.1501L203.568 17.3227L203.479 17.4938L203.386 17.6631L203.289 17.8305L203.187 17.9961L203.081 18.1602L202.97 18.3221L202.854 18.4825L202.735 18.6411L202.61 18.7982L202.482 18.953L202.348 19.1064L202.211 19.258L202.069 19.4077L202.069 19.4074L202.066 19.4066ZM196.667 21.4459L196.313 21.7125L196.49 21.3574L196.682 21.3552L196.872 21.3486L197.06 21.3375L197.246 21.322L197.431 21.3021L197.613 21.2778L197.794 21.249L197.973 21.2162L198.15 21.1786L198.325 21.1369L198.499 21.0908L198.671 21.0399L198.841 20.985L199.009 20.9256L199.175 20.8618L199.34 20.7936L199.504 20.7209L199.665 20.6438L199.825 20.5623L199.983 20.4764L200.139 20.3861L200.294 20.2913L200.447 20.1921L200.598 20.0885L200.748 19.9804L200.896 19.868L201.042 19.7511L201.187 19.6297L201.329 19.5036L201.471 19.3731L201.61 19.2381L201.748 19.0983L202.067 19.4063L201.922 19.553L201.776 19.695L201.627 19.8326L201.476 19.9657L201.324 20.094L201.169 20.2179L201.012 20.337L200.854 20.4517L200.693 20.5616L200.531 20.6671L200.367 20.7678L200.2 20.864L200.032 20.9551L199.862 21.0417L199.69 21.1236L199.516 21.2011L199.34 21.2737L199.163 21.3416L198.983 21.405L198.802 21.4636L198.619 21.5175L198.435 21.5669L198.248 21.6115L198.06 21.6513L197.87 21.6864L197.678 21.717L197.484 21.7424L197.289 21.7634L197.092 21.7797L196.894 21.7915L196.693 21.7985L196.491 21.8007L196.668 21.4456L196.667 21.4459ZM196.313 21.7125L196.046 21.3574H196.49L196.313 21.7125ZM203.645 31.4414L196.313 21.7125L196.667 21.4459L203.999 31.1748L203.822 31.5296L203.645 31.4414H203.645ZM203.999 31.1748L204.266 31.5288L203.823 31.5296L203.999 31.1748H203.999ZM200.567 31.0926L203.822 31.0867L203.822 31.5296L200.568 31.5355L200.39 31.447L200.567 31.0926ZM200.568 31.5355L200.457 31.5359L200.39 31.447L200.568 31.5355ZM191.897 19.3723L200.744 31.1811L200.39 31.4466L191.542 19.6378L191.719 19.2835L191.897 19.3723ZM191.542 19.6378L191.276 19.2835H191.719L191.542 19.6378ZM192.495 19.7267H191.719V19.2835H192.495V19.7267ZM193.2 19.7267H192.495V19.2835H193.2V19.7267ZM196.032 19.1791L196.079 19.6198L196.015 19.6264L195.949 19.6327L195.882 19.6389L195.813 19.6448L195.743 19.6507L195.671 19.6563L195.597 19.6614L195.521 19.6666L195.444 19.6714L195.365 19.6762L195.285 19.6806L195.202 19.6847L195.118 19.6887L195.033 19.6928L194.945 19.6965L194.856 19.6998L194.765 19.7031L194.673 19.7061L194.578 19.7086L194.483 19.7112L194.386 19.7134L194.286 19.7157L194.185 19.7175L194.082 19.7193L193.978 19.7208L193.872 19.7223L193.764 19.7234L193.655 19.7241L193.544 19.7249L193.431 19.7252L193.316 19.7256L193.2 19.726V19.2827H193.316L193.43 19.2823L193.542 19.282L193.652 19.2812L193.761 19.2805L193.868 19.2794L193.973 19.2779L194.077 19.2764L194.178 19.2746L194.278 19.2728L194.376 19.2705L194.473 19.2683L194.567 19.2658L194.66 19.2632L194.751 19.2602L194.841 19.2569L194.929 19.2536L195.015 19.2499L195.099 19.2458L195.181 19.2418L195.262 19.2377L195.341 19.2333L195.418 19.2289L195.494 19.2241L195.568 19.2193L195.64 19.2141L195.71 19.209L195.778 19.2034L195.845 19.1975L195.91 19.1916L195.973 19.1854L196.034 19.1791H196.032ZM198.078 18.5986L198.262 19.0017L198.259 19.0032L198.187 19.0342L198.116 19.0644L198.044 19.0943L197.973 19.123L197.902 19.1511L197.832 19.1784L197.761 19.2049L197.691 19.2307L197.621 19.2558L197.551 19.2801L197.482 19.3037L197.413 19.3266L197.344 19.3487L197.276 19.3697L197.207 19.3904L197.139 19.4099L197.071 19.4287L197.003 19.4468L196.936 19.4641L196.868 19.4807L196.801 19.4966L196.734 19.5117L196.668 19.5261L196.602 19.5397L196.535 19.5527L196.469 19.5648L196.404 19.5759L196.339 19.5862L196.274 19.5958L196.209 19.6047L196.144 19.6128L196.08 19.6201L196.032 19.1795L196.091 19.1728L196.151 19.1654L196.211 19.1573L196.271 19.1485L196.332 19.1389L196.392 19.1286L196.453 19.1175L196.514 19.1053L196.576 19.0928L196.639 19.0795L196.701 19.0655L196.764 19.0508L196.827 19.0353L196.89 19.019L196.954 19.0021L197.018 18.9844L197.082 18.9659L197.147 18.9468L197.211 18.9269L197.276 18.9062L197.342 18.8848L197.408 18.8627L197.474 18.8395L197.54 18.8155L197.607 18.7911L197.673 18.7661L197.741 18.7399L197.809 18.7133L197.877 18.6857L197.945 18.6576L198.013 18.6285L198.082 18.5986L198.079 18.6001L198.078 18.5986ZM200.487 16.5656L200.86 16.8046L200.802 16.8931L200.742 16.9809L200.681 17.0671L200.619 17.152L200.555 17.236L200.489 17.3183L200.422 17.3994L200.353 17.4791L200.283 17.5576L200.211 17.6347L200.138 17.7106L200.063 17.7851L199.988 17.8585L199.91 17.9304L199.831 18.0012L199.75 18.0706L199.668 18.1388L199.585 18.2055L199.5 18.2712L199.413 18.3353L199.326 18.3984L199.236 18.4596L199.145 18.5197L199.053 18.5784L198.959 18.6359L198.864 18.6919L198.768 18.7469L198.67 18.8004L198.57 18.8527L198.469 18.9036L198.367 18.9534L198.264 19.0017L198.08 18.5986L198.177 18.5533L198.273 18.5068L198.368 18.4589L198.461 18.4098L198.552 18.3601L198.643 18.3088L198.731 18.2564L198.818 18.2026L198.904 18.148L198.989 18.092L199.072 18.0352L199.153 17.9769L199.233 17.9175L199.312 17.857L199.389 17.7955L199.465 17.7324L199.539 17.6682L199.612 17.603L199.683 17.5366L199.753 17.4691L199.822 17.4005L199.889 17.3304L199.955 17.2593L200.02 17.187L200.083 17.1136L200.145 17.0387L200.205 16.9631L200.264 16.8861L200.322 16.8075L200.379 16.7282L200.433 16.6479L200.487 16.566V16.5656ZM201.333 13.5126H201.776L201.775 13.628L201.773 13.7423L201.768 13.8563L201.762 13.9691L201.754 14.0812L201.744 14.1929L201.733 14.3036L201.719 14.4135L201.704 14.5226L201.687 14.6307L201.668 14.7384L201.648 14.8449L201.626 14.9508L201.602 15.0559L201.576 15.1599L201.548 15.2631L201.519 15.366L201.487 15.4678L201.454 15.5688L201.419 15.6688L201.383 15.768L201.344 15.8664L201.304 15.9642L201.262 16.0608L201.218 16.157L201.172 16.2522L201.124 16.3462L201.075 16.4395L201.024 16.5321L200.971 16.6235L200.916 16.7142L200.86 16.8042L200.487 16.5652L200.539 16.4826L200.589 16.3989L200.638 16.3145L200.685 16.2297L200.73 16.1437L200.774 16.0571L200.816 15.9697L200.856 15.8815L200.895 15.7923L200.932 15.7023L200.968 15.6116L201.002 15.5198L201.034 15.4276L201.064 15.3347L201.093 15.2406L201.12 15.1458L201.146 15.05L201.17 14.9533L201.192 14.8564L201.213 14.7579L201.232 14.6587L201.249 14.5588L201.265 14.4581L201.279 14.3567L201.292 14.2542L201.302 14.1509L201.311 14.0465L201.319 13.9414L201.325 13.8352L201.329 13.7287L201.331 13.621L201.332 13.5126H201.333ZM200.706 10.9887L201.099 10.784L201.14 10.8652L201.181 10.9467L201.22 11.0282L201.257 11.11L201.293 11.1923L201.328 11.2749L201.362 11.3575L201.395 11.4408L201.426 11.5242L201.456 11.6079L201.484 11.6919L201.511 11.776L201.537 11.8605L201.561 11.9449L201.585 12.0297L201.606 12.1149L201.627 12.2005L201.646 12.2864L201.664 12.3723L201.681 12.4586L201.696 12.5453L201.71 12.6319L201.722 12.7186L201.733 12.806L201.743 12.8934L201.752 12.9812L201.759 13.0689L201.765 13.1571L201.77 13.2456L201.773 13.3341L201.775 13.423L201.776 13.5122H201.333L201.332 13.43L201.33 13.3477L201.327 13.2655L201.323 13.184L201.318 13.1025L201.311 13.021L201.303 12.9399L201.294 12.8591L201.284 12.7787L201.272 12.6983L201.259 12.6183L201.245 12.5386L201.23 12.459L201.214 12.3797L201.196 12.3008L201.177 12.2219L201.157 12.1433L201.136 12.0648L201.113 11.9866L201.089 11.9088L201.064 11.831L201.038 11.7532L201.01 11.6757L200.981 11.5983L200.951 11.5216L200.92 11.4445L200.888 11.3682L200.854 11.2918L200.819 11.2155L200.783 11.1395L200.745 11.0639L200.707 10.9883L200.706 10.9887ZM198.995 9.02315L199.25 8.66065L199.322 8.71265L199.394 8.76538L199.465 8.81922L199.534 8.8738L199.603 8.92948L199.671 8.98627L199.738 9.0438L199.804 9.10244L199.869 9.16181L199.933 9.22229L199.996 9.2835L200.059 9.34583L200.12 9.40925L200.18 9.47342L200.239 9.53832L200.298 9.60433L200.355 9.67108L200.412 9.73894L200.467 9.80753L200.522 9.87722L200.575 9.94766L200.627 10.0192L200.679 10.0915L200.729 10.1645L200.779 10.239L200.828 10.3138L200.875 10.3898L200.922 10.4669L200.967 10.5447L201.012 10.6236L201.056 10.7033L201.099 10.7837L200.706 10.9883L200.666 10.9135L200.626 10.8393L200.584 10.766L200.542 10.6937L200.499 10.6221L200.454 10.5517L200.409 10.482L200.364 10.4134L200.317 10.3456L200.269 10.2784L200.221 10.2124L200.171 10.1472L200.121 10.083L200.07 10.0192L200.018 9.95651L199.965 9.89493L199.911 9.83408L199.856 9.77397L199.801 9.71497L199.744 9.6567L199.687 9.59917L199.628 9.54238L199.569 9.4867L199.509 9.43175L199.448 9.37754L199.386 9.32444L199.324 9.27207L199.26 9.22044L199.195 9.16955L199.13 9.11977L199.063 9.07072L198.996 9.02241L198.995 9.02315ZM196.534 8.0566L196.599 7.61851L196.691 7.63289L196.782 7.64838L196.873 7.66497L196.963 7.68267L197.053 7.70185L197.142 7.72176L197.23 7.74315L197.318 7.76564L197.405 7.78925L197.492 7.81432L197.578 7.84051L197.664 7.86779L197.749 7.89619L197.833 7.92606L197.917 7.95667L198 7.98875L198.083 8.02194L198.165 8.05624L198.246 8.09201L198.327 8.12851L198.407 8.1665L198.487 8.20559L198.566 8.24615L198.644 8.28745L198.722 8.33023L198.799 8.37375L198.876 8.41874L198.952 8.46483L199.027 8.51204L199.102 8.56071L199.176 8.61013L199.249 8.66102L198.994 9.02352L198.926 8.97632L198.858 8.93022L198.788 8.88523L198.719 8.84172L198.648 8.79894L198.577 8.75727L198.506 8.7167L198.434 8.67725L198.361 8.63889L198.288 8.60165L198.214 8.56551L198.14 8.53047L198.065 8.49655L197.99 8.46373L197.914 8.43201L197.837 8.40104L197.76 8.37153L197.682 8.34277L197.604 8.31548L197.525 8.28893L197.446 8.26348L197.366 8.23915L197.285 8.21591L197.204 8.19379L197.122 8.17277L197.04 8.15285L196.957 8.13405L196.873 8.11635L196.789 8.09975L196.704 8.08426L196.618 8.06988L196.533 8.0566H196.534ZM193.235 7.84751V7.40425L193.354 7.40462L193.473 7.40499L193.59 7.40609L193.707 7.40757L193.823 7.40941L193.937 7.41162L194.051 7.41421L194.164 7.41716L194.276 7.42084L194.387 7.4249L194.497 7.42933L194.606 7.43412L194.715 7.43928L194.822 7.44481L194.928 7.45071L195.034 7.45735L195.139 7.46399L195.242 7.47137L195.345 7.47911L195.447 7.48722L195.548 7.4957L195.648 7.50455L195.747 7.51377L195.846 7.52373L195.943 7.53406L196.039 7.54475L196.135 7.55581L196.23 7.56762L196.323 7.57942L196.416 7.59158L196.508 7.60449L196.599 7.61777L196.534 8.05587L196.445 8.04296L196.356 8.03042L196.266 8.01825L196.174 8.00682L196.082 7.99576L195.989 7.98506L195.895 7.97474L195.8 7.96478L195.704 7.95482L195.607 7.9456L195.509 7.93675L195.41 7.92827L195.31 7.92016L195.21 7.91278L195.108 7.90578L195.005 7.89914L194.902 7.89287L194.797 7.88697L194.692 7.88144L194.585 7.87628L194.478 7.87148L194.37 7.86706L194.261 7.86337L194.15 7.85968L194.039 7.85673L193.927 7.85415L193.814 7.85194L193.7 7.85009L193.586 7.84862L193.47 7.84751L193.353 7.84714H193.235V7.84751ZM189.111 7.40425H193.235V7.84751H189.111L188.889 7.62588L189.111 7.40425ZM188.889 7.62588V7.40425H189.111L188.889 7.62588ZM188.889 31.3139V7.62588H189.332V31.3139L189.111 31.5355L188.889 31.3139H188.889ZM189.332 31.3139V31.5355H189.111L189.332 31.3139ZM186.502 31.0922H189.111V31.5355H186.502L186.281 31.3139L186.502 31.0922ZM186.502 31.5355H186.281V31.3139L186.502 31.5355ZM186.724 5.26427V31.3139H186.281V5.26427L186.503 5.04264L186.724 5.26427H186.724ZM186.281 5.26427V5.04264H186.503L186.281 5.26427Z" fill="black"/>
<path d="M211.248 7.62653H205.255V5.26456H219.778V7.62653H213.856V31.3145H211.248V7.62653Z" fill="black"/>
<path d="M205.255 7.40491H211.248V7.84817H205.255L205.034 7.62654L205.255 7.40491ZM205.255 7.84817H205.034V7.62654L205.255 7.84817ZM205.477 5.26494V7.62654H205.034V5.26494L205.256 5.0433L205.477 5.26494H205.477ZM205.034 5.26494V5.0433H205.256L205.034 5.26494ZM219.779 5.48657H205.256V5.0433H219.779L220 5.26494L219.779 5.48657ZM219.779 5.0433H220V5.26494L219.779 5.0433ZM219.557 7.62654V5.26494H220V7.62654L219.778 7.84817L219.557 7.62654H219.557ZM220 7.62654V7.84817H219.778L220 7.62654ZM213.857 7.40491H219.779V7.84817H213.857L213.635 7.62654L213.857 7.40491ZM213.635 7.62654V7.40491H213.857L213.635 7.62654ZM213.635 31.3145V7.62654H214.078V31.3145L213.856 31.5361L213.635 31.3145H213.635ZM214.078 31.3145V31.5361H213.856L214.078 31.3145ZM211.248 31.0929H213.857V31.5361H211.248L211.026 31.3145L211.248 31.0929ZM211.248 31.5361H211.026V31.3145L211.248 31.5361ZM211.47 7.62654V31.3145H211.027V7.62654L211.248 7.40491L211.47 7.62654H211.47ZM211.248 7.40491H211.47V7.62654L211.248 7.40491Z" fill="black"/>
<path d="M62.8824 38.2585C63.5912 38.2585 64.221 38.4396 64.7716 38.8054C65.3259 39.1675 65.7522 39.6801 66.0575 40.3328C66.3669 40.9889 66.5177 41.7357 66.5177 42.5764V49.3382C66.5177 49.391 66.4989 49.4363 66.4613 49.4702C66.4274 49.5079 66.382 49.5267 66.3293 49.5267H66.0877C66.035 49.5267 65.9897 49.5079 65.9484 49.4702C65.907 49.4363 65.8879 49.391 65.8879 49.3382V42.5879C65.8879 41.8677 65.7559 41.2227 65.4955 40.6607C65.2352 40.095 64.8656 39.6576 64.3907 39.3409C63.9153 39.0241 63.3762 38.8655 62.7729 38.8655C62.0637 38.8655 61.4453 39.0241 60.9098 39.3409C60.3781 39.6576 59.9669 40.1064 59.6804 40.6872C59.3901 41.268 59.2467 41.947 59.2467 42.7199L59.2353 42.7085V49.3382C59.2353 49.391 59.2164 49.4363 59.1825 49.4702C59.1449 49.5079 59.0995 49.5267 59.0505 49.5267H58.8053C58.7448 49.5267 58.6957 49.5079 58.6581 49.4702C58.6168 49.4363 58.594 49.391 58.594 49.3382V42.5879C58.594 41.8677 58.4656 41.2227 58.2016 40.6607C57.9412 40.095 57.5754 39.6576 57.1041 39.3409C56.6328 39.0241 56.0933 38.8655 55.49 38.8655C54.7849 38.8655 54.1625 39.0241 53.6307 39.3409C53.0952 39.6576 52.684 40.1064 52.3898 40.6872C52.0995 41.268 51.9561 41.947 51.9561 42.7199V49.3607C51.9561 49.4854 51.8882 49.5492 51.7562 49.5492H51.515C51.3867 49.5492 51.3262 49.485 51.3262 49.3607V38.6092C51.3262 38.4772 51.3867 38.413 51.515 38.413H51.6581C51.7145 38.413 51.7636 38.4281 51.8012 38.4621C51.8351 38.496 51.8539 38.5377 51.8539 38.5904L51.9218 40.6116C52.2235 39.8652 52.6951 39.2881 53.3287 38.8769C53.9659 38.4621 54.7241 38.2585 55.6025 38.2585C56.4322 38.2585 57.1561 38.5111 57.7672 39.0204C58.3779 39.5293 58.8042 40.2159 59.0494 41.087C59.2909 40.2008 59.7508 39.5105 60.422 39.0093C61.0972 38.5078 61.9155 38.2589 62.8809 38.2589L62.8824 38.2585ZM80.6785 38.413C80.8142 38.413 80.8784 38.4772 80.8784 38.6092V49.3493C80.8784 49.4098 80.8596 49.4547 80.8257 49.4924C80.788 49.5303 80.739 49.5488 80.6785 49.5488H80.5351C80.486 49.5488 80.4407 49.53 80.4031 49.4997C80.3654 49.4658 80.3466 49.4205 80.3389 49.3603L80.2485 46.332C79.962 47.0035 79.5586 47.5917 79.0379 48.1006C78.5212 48.6095 77.9179 49.0019 77.2316 49.2811C76.549 49.5639 75.8174 49.7033 75.0444 49.7033C74.0075 49.7033 73.0571 49.447 72.1935 48.9418C71.3335 48.4325 70.655 47.7389 70.1571 46.8638C69.6593 45.985 69.4104 45.0236 69.4104 43.9674C69.4104 42.8925 69.6593 41.916 70.1571 41.0335C70.655 40.1547 71.3298 39.4611 72.1898 38.9595C73.0498 38.454 73.996 38.2014 75.0334 38.2014C75.8104 38.2014 76.538 38.3408 77.2283 38.6199C77.9183 38.9028 78.5216 39.2948 79.0386 39.804C79.5589 40.3129 79.9624 40.9015 80.2493 41.5727L80.3396 38.5897C80.3474 38.5369 80.3662 38.4953 80.4001 38.4613C80.434 38.4274 80.4794 38.4123 80.5358 38.4123H80.6793L80.6785 38.413ZM75.1123 49.0852C76.0626 49.0852 76.93 48.8551 77.718 48.399C78.5061 47.9428 79.1286 47.3203 79.5848 46.5359C80.045 45.7516 80.271 44.8916 80.271 43.9564C80.271 43.0061 80.0409 42.1387 79.5811 41.3543C79.1208 40.57 78.495 39.9515 77.7029 39.4954C76.9108 39.0388 76.0398 38.8091 75.0894 38.8091C74.1616 38.8091 73.3134 39.0392 72.5438 39.4954C71.7746 39.9515 71.1635 40.574 70.7147 41.3621C70.2659 42.1501 70.0399 43.0138 70.0399 43.9568C70.0399 44.892 70.2663 45.7519 70.7188 46.5363C71.1712 47.3207 71.7897 47.9432 72.5667 48.3993C73.3437 48.8555 74.1918 49.0856 75.1123 49.0856V49.0852ZM89.6839 38.2017C90.5173 38.2017 91.2604 38.3828 91.9164 38.7486C92.5728 39.1144 93.0817 39.6233 93.4476 40.2797C93.8134 40.9358 93.9945 41.6825 93.9945 42.5233V49.3379C93.9945 49.3906 93.9757 49.4359 93.938 49.4699C93.9001 49.5075 93.8587 49.5263 93.806 49.5263H93.5648C93.5044 49.5263 93.4553 49.5075 93.414 49.4699C93.3723 49.4359 93.3535 49.3906 93.3535 49.3379V42.5422C93.3535 41.8219 93.195 41.177 92.8745 40.6113C92.554 40.0419 92.1052 39.6008 91.5359 39.2841C90.9665 38.9673 90.3141 38.8087 89.5862 38.8087C88.828 38.8087 88.1269 38.9857 87.4857 39.3327C86.8444 39.6834 86.3355 40.1547 85.9582 40.747C85.5773 41.3429 85.3888 41.9838 85.3888 42.6738V49.36C85.3888 49.4846 85.321 49.5484 85.189 49.5484H84.9478C84.8194 49.5484 84.759 49.4843 84.759 49.36V38.6085C84.759 38.4765 84.8194 38.4123 84.9478 38.4123H85.0909C85.1473 38.4123 85.1963 38.4274 85.2339 38.4613C85.2679 38.4953 85.2867 38.5369 85.2867 38.5897L85.366 40.841C85.5998 40.3244 85.9353 39.8678 86.369 39.4721C86.8064 39.0724 87.3079 38.763 87.8773 38.5369C88.4507 38.3146 89.05 38.2014 89.6835 38.2014L89.6839 38.2017ZM106.677 38.413C106.809 38.413 106.877 38.4735 106.877 38.5978V49.3493C106.877 49.4098 106.858 49.4547 106.82 49.4924C106.783 49.5303 106.737 49.5488 106.677 49.5488H106.534C106.481 49.5488 106.436 49.53 106.402 49.4997C106.364 49.4658 106.341 49.4205 106.334 49.3603L106.27 47.1053C106.032 47.622 105.697 48.0781 105.263 48.4779C104.829 48.8739 104.324 49.1867 103.751 49.4094C103.174 49.6358 102.57 49.745 101.937 49.749C101.103 49.7453 100.364 49.5643 99.7115 49.1985C99.0591 48.8363 98.5499 48.3274 98.1841 47.6751C97.8219 47.0227 97.6372 46.2796 97.6372 45.4388V38.6092C97.6372 38.5602 97.656 38.5148 97.6899 38.4849C97.7201 38.451 97.7651 38.4322 97.8142 38.4322H98.0594C98.1158 38.4322 98.1686 38.451 98.2066 38.4849C98.2479 38.5152 98.267 38.5602 98.267 38.6092V45.4163C98.267 46.1366 98.4293 46.7815 98.7498 47.3509C99.0702 47.9166 99.5153 48.3577 100.092 48.6744C100.665 48.9912 101.318 49.1498 102.045 49.1498C102.8 49.1498 103.494 48.9761 104.135 48.6258C104.776 48.2751 105.285 47.8034 105.666 47.2115C106.043 46.6193 106.235 45.9784 106.235 45.2843V38.5982C106.235 38.4735 106.3 38.4134 106.432 38.4134H106.677V38.413ZM115.294 32.5337C115.358 32.5337 115.414 32.5525 115.464 32.5901C115.513 32.6241 115.535 32.6694 115.535 32.7222V32.9633C115.535 33.0161 115.512 33.0577 115.471 33.0917C115.426 33.1256 115.369 33.1407 115.305 33.1407C114.766 33.1407 114.275 33.2687 113.834 33.529C113.393 33.7857 113.042 34.1475 112.786 34.6151C112.526 35.0827 112.398 35.6218 112.398 36.2329V38.4315H115.06C115.121 38.4315 115.17 38.4466 115.203 38.4768C115.241 38.5071 115.26 38.5484 115.26 38.5974V38.8198C115.26 38.8803 115.241 38.9252 115.203 38.9632C115.169 39.0008 115.12 39.0197 115.06 39.0197H112.398V49.36C112.398 49.4846 112.333 49.5484 112.198 49.5484H111.922C111.873 49.5484 111.832 49.5296 111.805 49.4994C111.783 49.4654 111.768 49.4201 111.768 49.36V39.0197H109.957C109.897 39.0197 109.852 39.0008 109.818 38.9632C109.784 38.9252 109.769 38.8803 109.769 38.8198V38.6085C109.769 38.5594 109.784 38.5141 109.818 38.4842C109.852 38.4503 109.897 38.4315 109.957 38.4315H111.768V36.2443C111.768 35.5163 111.922 34.8717 112.232 34.306C112.541 33.744 112.967 33.3067 113.502 32.9973C114.042 32.6879 114.637 32.5334 115.294 32.5334L115.294 32.5337ZM127.863 38.413C127.999 38.413 128.063 38.4772 128.063 38.6092V49.3493C128.063 49.4098 128.044 49.4547 128.01 49.4924C127.973 49.5303 127.924 49.5488 127.863 49.5488H127.72C127.671 49.5488 127.625 49.53 127.588 49.4997C127.55 49.4658 127.531 49.4205 127.523 49.3603L127.433 46.332C127.147 47.0035 126.743 47.5917 126.222 48.1006C125.706 48.6095 125.102 49.0019 124.416 49.2811C123.734 49.5639 123.002 49.7033 122.229 49.7033C121.192 49.7033 120.242 49.447 119.378 48.9418C118.518 48.4325 117.84 47.7389 117.342 46.8638C116.844 45.985 116.595 45.0236 116.595 43.9674C116.595 42.8925 116.844 41.916 117.342 41.0335C117.84 40.1547 118.514 39.4611 119.374 38.9595C120.234 38.454 121.181 38.2014 122.218 38.2014C122.995 38.2014 123.723 38.3408 124.413 38.6199C125.103 38.9028 125.706 39.2948 126.223 39.804C126.743 40.3129 127.147 40.9015 127.434 41.5727L127.524 38.5897C127.532 38.5369 127.551 38.4953 127.585 38.4613C127.619 38.4274 127.664 38.4123 127.72 38.4123H127.864L127.863 38.413ZM122.297 49.0852C123.247 49.0852 124.115 48.8551 124.903 48.399C125.691 47.9428 126.313 47.3203 126.769 46.5359C127.23 45.7516 127.456 44.8916 127.456 43.9564C127.456 43.0061 127.225 42.1387 126.766 41.3543C126.305 40.57 125.68 39.9515 124.887 39.4954C124.095 39.0388 123.224 38.8091 122.274 38.8091C121.346 38.8091 120.498 39.0392 119.728 39.4954C118.959 39.9515 118.348 40.574 117.899 41.3621C117.45 42.1501 117.224 43.0138 117.224 43.9568C117.224 44.892 117.451 45.7519 117.903 46.5363C118.356 47.3207 118.974 47.9432 119.751 48.3993C120.528 48.8555 121.376 49.0856 122.297 49.0856V49.0852ZM136.77 49.7265C135.726 49.7265 134.768 49.4625 133.897 48.9422C133.029 48.4181 132.343 47.7127 131.837 46.8302C131.332 45.9477 131.079 44.99 131.079 43.9564C131.079 42.9117 131.332 41.954 131.837 41.0866C132.343 40.2156 133.029 39.5293 133.897 39.02C134.768 38.5108 135.718 38.2581 136.747 38.2581C137.483 38.2581 138.203 38.3975 138.901 38.6804C139.602 38.9669 140.221 39.3479 140.76 39.8269C140.809 39.8682 140.835 39.9176 140.835 39.9703C140.835 40.0043 140.82 40.0456 140.79 40.0909L140.658 40.2908C140.628 40.3325 140.582 40.355 140.514 40.355C140.462 40.355 140.413 40.3325 140.36 40.2908C139.851 39.842 139.293 39.4954 138.686 39.2501C138.078 39.009 137.434 38.888 136.747 38.888C135.827 38.888 134.983 39.1104 134.213 39.5592C133.444 40.008 132.837 40.6227 132.388 41.3997C131.943 42.1767 131.721 43.0289 131.721 43.9564C131.721 44.8765 131.947 45.7328 132.396 46.5208C132.844 47.3089 133.455 47.935 134.228 48.399C135.002 48.8629 135.854 49.0967 136.781 49.0967C137.468 49.0967 138.116 48.9683 138.738 48.7157C139.357 48.4594 139.896 48.1161 140.36 47.6824C140.42 47.6371 140.473 47.6146 140.526 47.6146C140.564 47.6146 140.602 47.6334 140.635 47.671L140.779 47.8558C140.809 47.9011 140.824 47.9424 140.824 47.9804C140.824 48.0597 140.794 48.1198 140.737 48.1578C140.198 48.6556 139.587 49.0439 138.897 49.3154C138.207 49.5908 137.498 49.7265 136.77 49.7265H136.77ZM147.986 49.1192C148.05 49.1192 148.106 49.1343 148.152 49.1682C148.193 49.1985 148.216 49.2434 148.216 49.2925V49.5377C148.216 49.5868 148.193 49.6321 148.144 49.6697C148.099 49.7074 148.035 49.7262 147.963 49.7262C147.315 49.7262 146.722 49.5753 146.183 49.2774C145.648 48.9794 145.222 48.5686 144.909 48.0519C144.596 47.5316 144.437 46.9545 144.437 46.3209V38.9861H142.691C142.559 38.9861 142.495 38.9297 142.495 38.8201V38.6088C142.495 38.4846 142.559 38.4241 142.691 38.4241H144.437V34.8529C144.437 34.7511 144.49 34.6796 144.592 34.6457L144.871 34.5893C144.886 34.5815 144.905 34.5782 144.935 34.5782C144.98 34.5782 145.014 34.5933 145.04 34.6272C145.067 34.6612 145.078 34.7025 145.078 34.7552V38.4245H147.752C147.876 38.4245 147.94 38.4772 147.94 38.5904V38.8205C147.94 38.93 147.876 38.9865 147.752 38.9865H145.078V46.3327C145.078 46.842 145.206 47.3096 145.466 47.7355C145.723 48.1655 146.073 48.5011 146.522 48.7463C146.967 48.9953 147.454 49.1195 147.985 49.1195L147.986 49.1192ZM160.295 38.413C160.427 38.413 160.495 38.4735 160.495 38.5978V49.3493C160.495 49.4098 160.476 49.4547 160.438 49.4924C160.401 49.5303 160.355 49.5488 160.295 49.5488H160.152C160.099 49.5488 160.054 49.53 160.02 49.4997C159.982 49.4658 159.959 49.4205 159.952 49.3603L159.888 47.1053C159.65 47.622 159.315 48.0781 158.881 48.4779C158.447 48.8739 157.942 49.1867 157.369 49.4094C156.792 49.6358 156.188 49.745 155.555 49.749C154.721 49.7453 153.982 49.5643 153.33 49.1985C152.677 48.8363 152.168 48.3274 151.802 47.6751C151.44 47.0227 151.255 46.2796 151.255 45.4388V38.6092C151.255 38.5602 151.274 38.5148 151.308 38.4849C151.338 38.451 151.383 38.4322 151.432 38.4322H151.678C151.734 38.4322 151.787 38.451 151.825 38.4849C151.866 38.5152 151.885 38.5602 151.885 38.6092V45.4163C151.885 46.1366 152.047 46.7815 152.368 47.3509C152.688 47.9166 153.133 48.3577 153.71 48.6744C154.283 48.9912 154.936 49.1498 155.664 49.1498C156.418 49.1498 157.112 48.9761 157.753 48.6258C158.394 48.2751 158.903 47.8034 159.284 47.2115C159.661 46.6193 159.854 45.9784 159.854 45.2843V38.5982C159.854 38.4735 159.918 38.4134 160.05 38.4134H160.295V38.413ZM170.945 38.9975C171.001 39.0351 171.043 39.0768 171.065 39.1295C171.088 39.1823 171.084 39.2276 171.054 39.273L170.922 39.4729C170.876 39.5334 170.831 39.5595 170.779 39.5595C170.733 39.5595 170.669 39.537 170.579 39.4843C170.269 39.2771 169.942 39.1148 169.591 38.9979C169.24 38.881 168.904 38.8205 168.58 38.8205C167.916 38.8205 167.309 38.9865 166.762 39.311C166.212 39.6392 165.782 40.0839 165.465 40.6386C165.148 41.1928 164.99 41.8002 164.99 42.4562V49.3611C164.99 49.4857 164.922 49.5495 164.79 49.5495H164.549C164.42 49.5495 164.36 49.4854 164.36 49.3611V38.6096C164.36 38.4776 164.42 38.4134 164.549 38.4134H164.692C164.748 38.4134 164.797 38.4285 164.835 38.4624C164.869 38.4964 164.888 38.538 164.888 38.5908L164.955 40.6234C165.272 39.9069 165.759 39.3302 166.419 38.8887C167.079 38.4436 167.818 38.225 168.636 38.225C169.002 38.225 169.39 38.2928 169.801 38.4285C170.209 38.5642 170.59 38.753 170.944 38.9979L170.945 38.9975ZM177.684 38.2356C178.732 38.2356 179.66 38.4695 180.474 38.9371C181.289 39.4047 181.923 40.057 182.379 40.8904C182.835 41.7275 183.065 42.6815 183.065 43.7602C183.065 43.8469 183.039 43.9298 182.982 44.0014C182.926 44.077 182.846 44.1109 182.745 44.1109H172.834C172.849 45.0122 173.083 45.8419 173.536 46.6075C173.988 47.3767 174.603 47.9841 175.38 48.4325C176.157 48.8813 177.02 49.1077 177.963 49.1077C178.661 49.1077 179.325 48.9908 179.95 48.7644C180.577 48.5343 181.119 48.1913 181.583 47.7348C181.629 47.6931 181.678 47.6706 181.73 47.6706C181.78 47.6706 181.825 47.6894 181.863 47.7234L182.006 47.9008C182.043 47.9384 182.058 47.98 182.058 48.0213C182.058 48.0818 182.032 48.1419 181.972 48.1987C181.455 48.7002 180.844 49.0812 180.132 49.3375C179.422 49.5941 178.683 49.7258 177.918 49.7258C176.858 49.7258 175.889 49.4654 175.018 48.9529C174.143 48.4362 173.456 47.7385 172.951 46.8634C172.446 45.9846 172.193 45.0306 172.193 43.9899C172.193 42.9301 172.439 41.961 172.925 41.0785C173.408 40.1997 174.071 39.5057 174.912 38.9968C175.753 38.4879 176.677 38.2349 177.684 38.2349V38.2356ZM177.673 38.8541C176.835 38.8541 176.058 39.0576 175.35 39.4648C174.637 39.8759 174.06 40.4339 173.615 41.139C173.166 41.8481 172.914 42.6362 172.846 43.5035H182.425C182.387 42.5908 182.164 41.784 181.757 41.0789C181.346 40.3775 180.792 39.8306 180.087 39.4386C179.385 39.0503 178.582 38.8541 177.673 38.8541H177.673Z" fill="black"/>
</g>
<defs>
<clipPath id="clip0_48_888">
<rect width="220" height="54.591" fill="white"/>
</clipPath>
</defs>
</svg>
